<svg width="24" height="30" viewBox="0 0 24 30" fill="none" xmlns="http://www.w3.org/2000/svg">
<path d="M14.75 1.25H3.75C3.02065 1.25 2.32118 1.53973 1.80546 2.05546C1.28973 2.57118 1 3.27065 1 4V26C1 26.7293 1.28973 27.4288 1.80546 27.9445C2.32118 28.4603 3.02065 28.75 3.75 28.75H20.25C20.9793 28.75 21.6788 28.4603 22.1945 27.9445C22.7103 27.4288 23 26.7293 23 26V9.5L14.75 1.25Z" stroke="white" stroke-width="2" stroke-linecap="round" stroke-linejoin="round"/>
<path d="M14.75 1.25V9.5H23" stroke="white" stroke-width="2" stroke-linecap="round" stroke-linejoin="round"/>
<path d="M17.5 16.375H6.5" stroke="white" stroke-width="2" stroke-linecap="round" stroke-linejoin="round"/>
<path d="M17.5 21.875H6.5" stroke="white" stroke-width="2" stroke-linecap="round" stroke-linejoin="round"/>
<path d="M9.25 10.875H7.875H6.5" stroke="white" stroke-width="2" stroke-linecap="round" stroke-linejoin="round"/>
</svg>
