<svg width="25" height="26" viewBox="0 0 25 26" fill="none" xmlns="http://www.w3.org/2000/svg">
<path d="M12.5 0.949951C10.0876 0.949951 7.72946 1.66529 5.72368 3.00551C3.7179 4.34573 2.15458 6.25064 1.23142 8.47934C0.308263 10.708 0.0667226 13.1605 0.537345 15.5264C1.00797 17.8924 2.16962 20.0657 3.87539 21.7715C5.58117 23.4773 7.75446 24.6389 10.1204 25.1095C12.4864 25.5802 14.9388 25.3386 17.1675 24.4155C19.3962 23.4923 21.3011 21.929 22.6414 19.9232C23.9816 17.9174 24.6969 15.5593 24.6969 13.1469C24.6969 9.91208 23.4119 6.80974 21.1245 4.52236C18.8371 2.23499 15.7348 0.949951 12.5 0.949951ZM12.5 23.6015C10.4322 23.6015 8.41096 22.9883 6.69172 21.8396C4.97248 20.6908 3.63249 19.058 2.84121 17.1477C2.04993 15.2374 1.8429 13.1353 2.24629 11.1073C2.64968 9.07936 3.64538 7.21654 5.10747 5.75444C6.56957 4.29235 8.43239 3.29665 10.4604 2.89326C12.4884 2.48987 14.5904 2.6969 16.5007 3.48818C18.4111 4.27946 20.0438 5.61945 21.1926 7.33869C22.3413 9.05793 22.9545 11.0792 22.9545 13.1469C22.9545 15.9196 21.853 18.5788 19.8924 20.5394C17.9318 22.5 15.2727 23.6015 12.5 23.6015Z" fill="#ADADAD"/>
<path d="M13.1185 6.42992C12.9545 6.26587 12.732 6.17371 12.5 6.17371C12.268 6.17371 12.0455 6.26587 11.8814 6.42992C11.7174 6.59397 11.6252 6.81648 11.6252 7.04848C11.6252 7.28049 11.7174 7.50299 11.8814 7.66704L16.4988 12.2758H6.40149C6.17043 12.2758 5.94883 12.3675 5.78545 12.5309C5.62206 12.6943 5.53027 12.9159 5.53027 13.147C5.53027 13.378 5.62206 13.5996 5.78545 13.763C5.94883 13.9264 6.17043 14.0182 6.40149 14.0182H16.4988L11.8814 18.6269C11.7998 18.7079 11.7349 18.8042 11.6907 18.9104C11.6465 19.0166 11.6237 19.1304 11.6237 19.2455C11.6237 19.3605 11.6465 19.4743 11.6907 19.5805C11.7349 19.6867 11.7998 19.783 11.8814 19.864C11.9624 19.9457 12.0588 20.0105 12.1649 20.0547C12.2711 20.0989 12.385 20.1217 12.5 20.1217C12.615 20.1217 12.7289 20.0989 12.835 20.0547C12.9412 20.0105 13.0375 19.9457 13.1185 19.864L19.217 13.7655C19.2987 13.6845 19.3635 13.5882 19.4077 13.482C19.4519 13.3759 19.4747 13.262 19.4747 13.147C19.4747 13.032 19.4519 12.9181 19.4077 12.8119C19.3635 12.7058 19.2987 12.6094 19.217 12.5284L13.1185 6.42992Z" fill="#ADADAD"/>
</svg>
