<svg width="309" height="74" viewBox="0 0 309 74" fill="none" xmlns="http://www.w3.org/2000/svg">
<g clip-path="url(#clip0_105_14)">
<g opacity="0.99">
<path d="M119.542 36.3827C119.542 40.0525 119.062 43.1926 118.106 45.7979C117.151 48.4082 115.779 50.5323 113.989 52.185C112.2 53.8327 110.027 55.0431 107.466 55.8159C104.906 56.5888 101.855 56.9776 98.3201 56.9776H88.7859C88.1069 56.9776 87.5347 56.7784 87.074 56.3749C86.6133 55.9715 86.3805 55.3201 86.3805 54.4112V19.5305C86.3805 18.6215 86.6133 17.9702 87.074 17.5667C87.5347 17.1633 88.1069 16.964 88.7859 16.964H99.0282C102.588 16.964 105.604 17.382 108.082 18.2181C110.56 19.0541 112.651 20.2887 114.343 21.9268C116.04 23.5649 117.33 25.5918 118.213 28.0027C119.096 30.4137 119.542 33.2086 119.542 36.3827ZM111.147 36.6597C111.147 34.764 110.924 32.9996 110.483 31.3712C110.042 29.7429 109.329 28.3284 108.354 27.1327C107.379 25.9369 106.123 25.0037 104.591 24.3329C103.058 23.6621 101.046 23.3267 98.5578 23.3267H94.455V50.5372H98.6839C100.905 50.5372 102.777 50.2504 104.3 49.6719C105.822 49.0935 107.093 48.2234 108.111 47.0569C109.13 45.8903 109.891 44.4418 110.396 42.7114C110.9 40.9809 111.152 38.9589 111.152 36.65L111.147 36.6597Z" fill="#003F49"/>
<path d="M149.866 53.7939C149.866 54.3917 149.842 54.8924 149.789 55.2958C149.735 55.6993 149.658 56.0249 149.556 56.268C149.454 56.5159 149.323 56.6957 149.168 56.8075C149.013 56.9193 148.843 56.9776 148.659 56.9776H128.606C127.927 56.9776 127.355 56.7784 126.894 56.3749C126.433 55.9715 126.2 55.3201 126.2 54.4112V19.5305C126.2 18.6215 126.433 17.9702 126.894 17.5667C127.355 17.1633 127.927 16.964 128.606 16.964H148.537C148.722 16.964 148.887 17.0175 149.032 17.1195C149.178 17.2216 149.299 17.4015 149.401 17.6591C149.502 17.9167 149.58 18.2472 149.633 18.6507C149.687 19.0541 149.711 19.5645 149.711 20.1818C149.711 20.7602 149.687 21.2463 149.633 21.6497C149.58 22.0532 149.502 22.374 149.401 22.6219C149.299 22.8698 149.173 23.0496 149.032 23.1614C148.887 23.2732 148.722 23.3316 148.537 23.3316H134.285V33.1017H146.345C146.53 33.1017 146.699 33.16 146.855 33.2718C147.01 33.3836 147.136 33.5586 147.243 33.7968C147.344 34.0349 147.422 34.3557 147.475 34.7543C147.529 35.1578 147.553 35.6487 147.553 36.2223C147.553 36.7958 147.529 37.3159 147.475 37.7048C147.422 38.0985 147.344 38.4096 147.243 38.6478C147.141 38.886 147.01 39.0561 146.855 39.1582C146.699 39.2602 146.53 39.3137 146.345 39.3137H134.285V50.6003H148.664C148.848 50.6003 149.018 50.6587 149.173 50.7705C149.328 50.8823 149.454 51.0621 149.561 51.31C149.663 51.5579 149.74 51.8836 149.793 52.2822C149.847 52.6856 149.871 53.1863 149.871 53.7841L149.866 53.7939Z" fill="#003F49"/>
<path d="M178.959 53.5751C178.959 54.1924 178.935 54.7125 178.881 55.1354C178.828 55.5583 178.75 55.9083 178.648 56.1853C178.547 56.4624 178.416 56.6666 178.26 56.7881C178.105 56.9096 177.926 56.9728 177.722 56.9728H159.425C158.746 56.9728 158.174 56.7735 157.713 56.3701C157.252 55.9666 157.019 55.3153 157.019 54.4063V18.0771C157.019 17.8729 157.087 17.6882 157.218 17.5181C157.354 17.3528 157.572 17.2216 157.883 17.1147C158.193 17.0126 158.61 16.93 159.134 16.8668C159.658 16.8036 160.312 16.7744 161.093 16.7744C161.874 16.7744 162.553 16.8036 163.067 16.8668C163.581 16.93 163.993 17.0126 164.299 17.1147C164.609 17.2167 164.827 17.3528 164.963 17.5181C165.099 17.6834 165.162 17.8681 165.162 18.0771V50.2698H177.717C177.921 50.2698 178.105 50.3281 178.256 50.4399C178.411 50.5517 178.537 50.7413 178.644 50.9989C178.745 51.2565 178.823 51.5968 178.876 52.0197C178.93 52.4426 178.954 52.9627 178.954 53.58L178.959 53.5751Z" fill="#003F49"/>
<path d="M205.68 20.3034C205.68 20.9012 205.656 21.4116 205.602 21.8345C205.549 22.2574 205.471 22.5976 205.37 22.8553C205.268 23.1129 205.137 23.3024 204.982 23.4288C204.826 23.5503 204.657 23.6135 204.472 23.6135H194.477V55.8646C194.477 56.0687 194.409 56.2583 194.279 56.4236C194.143 56.5888 193.925 56.7249 193.614 56.827C193.304 56.9291 192.887 57.0117 192.363 57.0749C191.839 57.1381 191.185 57.1673 190.404 57.1673C189.623 57.1673 188.968 57.1381 188.445 57.0749C187.921 57.0117 187.504 56.9291 187.193 56.827C186.883 56.7249 186.665 56.5888 186.529 56.4236C186.393 56.2583 186.33 56.0736 186.33 55.8646V23.6087H176.335C176.131 23.6087 175.952 23.5455 175.811 23.424C175.666 23.3024 175.545 23.108 175.443 22.8504C175.341 22.5928 175.263 22.2525 175.21 21.8296C175.157 21.4068 175.132 20.8964 175.132 20.2985C175.132 19.7006 175.157 19.1562 175.21 18.7236C175.263 18.291 175.336 17.9459 175.443 17.6883C175.545 17.4307 175.671 17.246 175.811 17.1293C175.957 17.0175 176.131 16.9592 176.335 16.9592H204.472C204.657 16.9592 204.826 17.0175 204.982 17.1293C205.137 17.2411 205.263 17.4307 205.37 17.6883C205.471 17.9459 205.549 18.291 205.602 18.7236C205.656 19.1562 205.68 19.6812 205.68 20.2985V20.3034Z" fill="#003F49"/>
<path d="M238.133 53.9445C238.381 54.6882 238.536 55.2764 238.594 55.709C238.652 56.1416 238.575 56.4673 238.347 56.6811C238.119 56.8999 237.721 57.0311 237.144 57.0846C236.567 57.1381 235.776 57.1623 234.768 57.1623C233.759 57.1623 232.901 57.1478 232.314 57.1137C231.727 57.0797 231.281 57.0214 230.97 56.929C230.66 56.8367 230.447 56.7054 230.321 56.5402C230.199 56.3749 230.093 56.161 230.01 55.8888L227.328 47.8492H212.334L209.802 55.675C209.72 55.9617 209.613 56.2048 209.477 56.4041C209.341 56.5985 209.128 56.754 208.827 56.8658C208.527 56.9776 208.105 57.0554 207.562 57.0992C207.018 57.1381 206.301 57.1623 205.418 57.1623C204.472 57.1623 203.73 57.1332 203.197 57.07C202.663 57.0068 202.29 56.861 202.086 56.6228C201.883 56.3846 201.81 56.0492 201.868 55.6166C201.931 55.184 202.086 54.6056 202.329 53.8862L214.637 18.3882C214.758 18.0382 214.904 17.7563 215.069 17.5376C215.234 17.3188 215.495 17.1584 215.854 17.0418C216.213 16.93 216.713 16.857 217.353 16.823C217.988 16.7939 218.832 16.7744 219.884 16.7744C221.097 16.7744 222.062 16.789 222.784 16.823C223.502 16.8522 224.065 16.9251 224.467 17.0418C224.87 17.1536 225.156 17.3237 225.33 17.5521C225.505 17.7806 225.655 18.0868 225.777 18.4805L238.119 53.9494L238.133 53.9445ZM219.807 24.6002H219.778L214.133 41.608H225.456L219.812 24.6002H219.807Z" fill="#003F49"/>
<path d="M270.591 50.9163C270.591 51.4315 270.577 51.869 270.543 52.2287C270.514 52.5884 270.465 52.8995 270.402 53.1571C270.339 53.4147 270.257 53.6383 270.155 53.823C270.053 54.0078 269.888 54.2216 269.66 54.4549C269.432 54.6931 268.996 54.9945 268.351 55.3688C267.701 55.7382 266.911 56.093 265.975 56.4333C265.039 56.7735 263.967 57.0554 262.764 57.2839C261.561 57.5123 260.262 57.6241 258.86 57.6241C256.125 57.6241 253.657 57.2013 251.455 56.3555C249.253 55.5097 247.381 54.2459 245.839 52.569C244.297 50.8871 243.114 48.7922 242.289 46.2743C241.465 43.7613 241.057 40.8303 241.057 37.4909C241.057 34.1516 241.508 31.0699 242.415 28.4305C243.322 25.7911 244.583 23.5746 246.208 21.781C247.832 19.9874 249.782 18.6264 252.056 17.698C254.331 16.7696 256.833 16.3078 259.568 16.3078C260.679 16.3078 261.746 16.4002 262.779 16.5849C263.807 16.7696 264.757 17.0126 265.63 17.314C266.503 17.6153 267.289 17.9605 267.992 18.3493C268.69 18.743 269.18 19.0784 269.457 19.3555C269.733 19.6326 269.922 19.8659 270.029 20.0506C270.131 20.2353 270.213 20.4735 270.276 20.7602C270.339 21.047 270.383 21.3873 270.417 21.781C270.446 22.1747 270.465 22.6559 270.465 23.2344C270.465 23.8517 270.446 24.3766 270.402 24.8092C270.359 25.2419 270.291 25.5918 270.184 25.8592C270.082 26.1265 269.956 26.3209 269.815 26.4473C269.67 26.5688 269.505 26.632 269.321 26.632C269.01 26.632 268.622 26.4522 268.147 26.0925C267.672 25.7328 267.061 25.3293 266.309 24.887C265.558 24.4447 264.665 24.0412 263.627 23.6816C262.59 23.3219 261.348 23.142 259.908 23.142C258.322 23.142 256.911 23.4677 255.664 24.1142C254.418 24.7655 253.361 25.689 252.488 26.8994C251.615 28.1048 250.951 29.5631 250.5 31.274C250.049 32.985 249.821 34.9147 249.821 37.0583C249.821 39.4109 250.063 41.4427 250.548 43.1634C251.033 44.8841 251.722 46.3035 252.614 47.4166C253.506 48.5297 254.588 49.3609 255.854 49.9053C257.119 50.4497 258.54 50.7267 260.126 50.7267C261.566 50.7267 262.808 50.5566 263.86 50.2164C264.908 49.8761 265.81 49.5018 266.561 49.0887C267.313 48.6755 267.929 48.3061 268.414 47.9756C268.899 47.645 269.272 47.4798 269.539 47.4798C269.743 47.4798 269.908 47.5235 270.034 47.6013C270.155 47.6839 270.262 47.8492 270.344 48.0971C270.426 48.345 270.49 48.6901 270.528 49.1324C270.567 49.5747 270.591 50.1678 270.591 50.9115V50.9163Z" fill="#2A4887"/>
<path d="M309 42.0698C309 44.5245 308.641 46.7166 307.919 48.6561C307.196 50.5955 306.139 52.2336 304.742 53.5752C303.345 54.9167 301.614 55.9375 299.558 56.6374C297.502 57.3374 295.135 57.6874 292.463 57.6874C289.956 57.6874 287.701 57.3714 285.708 56.7444C283.714 56.1173 282.027 55.1646 280.649 53.8862C279.272 52.6079 278.215 51.0135 277.487 49.1081C276.755 47.2027 276.391 44.9716 276.391 42.4149V18.0771C276.391 17.873 276.455 17.6883 276.576 17.5181C276.697 17.3529 276.92 17.2216 277.24 17.1147C277.56 17.0126 277.977 16.93 278.491 16.8668C279.005 16.8036 279.665 16.7745 280.465 16.7745C281.265 16.7745 281.896 16.8036 282.41 16.8668C282.924 16.93 283.336 17.0126 283.642 17.1147C283.952 17.2168 284.17 17.3529 284.306 17.5181C284.442 17.6834 284.505 17.8681 284.505 18.0771V41.7004C284.505 43.2898 284.699 44.6654 285.092 45.8271C285.484 46.9937 286.042 47.9561 286.774 48.7193C287.502 49.4824 288.38 50.056 289.398 50.4351C290.416 50.8191 291.551 51.0087 292.807 51.0087C294.063 51.0087 295.222 50.8143 296.231 50.4205C297.24 50.0268 298.093 49.4581 298.792 48.7047C299.49 47.9513 300.028 47.0229 300.411 45.9195C300.79 44.8161 300.984 43.5669 300.984 42.1621V18.0723C300.984 17.8681 301.047 17.6834 301.168 17.5133C301.289 17.348 301.507 17.2168 301.818 17.1098C302.128 17.0078 302.545 16.9251 303.069 16.8619C303.593 16.7988 304.247 16.7696 305.028 16.7696C305.809 16.7696 306.454 16.7988 306.958 16.8619C307.463 16.9251 307.87 17.0078 308.176 17.1098C308.486 17.2119 308.699 17.348 308.825 17.5133C308.947 17.6786 309.01 17.8633 309.01 18.0723V42.0698H309Z" fill="#2A4887"/>
</g>
<g opacity="0.99">
<path d="M61.4537 42.3468C62.2588 42.3468 62.2636 41.0928 61.4537 41.0928C60.6438 41.0928 60.6438 42.3468 61.4537 42.3468Z" fill="white"/>
<path opacity="0.5" d="M20.3779 19.2923C20.3779 19.375 20.373 19.4576 20.373 19.5354V19.0444C20.373 19.0444 20.373 19.059 20.373 19.0639C20.373 19.1416 20.3779 19.2146 20.3779 19.2875V19.2923Z" fill="white"/>
<path d="M5.46551 30.7151C5.21818 31.9643 5.46551 33.2329 6.17355 34.2877C7.13861 35.7362 8.76322 36.4848 10.3878 36.3973V41.1025C7.35199 42.9058 3.81181 43.9411 0.024292 43.9411V0H4.69928C4.83506 0.0291645 4.97085 0.058329 5.10664 0.0874934C5.15029 0.0972149 5.18908 0.106936 5.23273 0.116658C5.32972 0.140962 5.42671 0.165265 5.5237 0.189569C5.64494 0.218734 5.77103 0.252759 5.88742 0.286784C6.24629 0.383999 6.59546 0.490935 6.94463 0.607593C7.00767 0.627036 7.07072 0.65134 7.12891 0.670783C7.20165 0.695087 7.2744 0.71939 7.34714 0.748555C7.40534 0.767998 7.46353 0.792302 7.52173 0.811745C7.58477 0.836048 7.65266 0.860352 7.71571 0.884656C7.82725 0.928402 7.94364 0.972149 8.05518 1.0159C8.11822 1.0402 8.18127 1.06936 8.24431 1.09367C8.30736 1.11797 8.3704 1.14714 8.43344 1.17144C8.47709 1.19088 8.52559 1.21033 8.56923 1.22977C8.68077 1.27838 8.79231 1.32698 8.90385 1.38045C8.9572 1.40476 9.00569 1.42906 9.05419 1.4485C9.27727 1.55544 9.50035 1.66724 9.72343 1.77903C9.84467 1.84222 9.96591 1.90541 10.0823 1.9686C10.1405 2.00263 10.1987 2.03179 10.2617 2.06582C10.3199 2.09984 10.3781 2.13387 10.4363 2.16789C10.4945 2.20192 10.5527 2.23594 10.6109 2.26997C10.6691 2.30399 10.7273 2.33802 10.7855 2.37204C10.9019 2.44009 11.0183 2.51301 11.1298 2.58592C11.188 2.61994 11.2413 2.65883 11.2995 2.69285C11.3577 2.72688 11.4111 2.76576 11.4693 2.80465C11.5226 2.84354 11.5808 2.87756 11.639 2.91645L11.8039 3.02824C16.8038 6.45993 20.1403 12.147 20.3537 18.6264C20.3537 18.7673 20.3634 18.9034 20.3634 19.0444V19.0638L7.47808 27.6819C6.42087 28.3868 5.70314 29.4658 5.45581 30.7102L5.46551 30.7151Z" fill="url(#paint0_linear_105_14)"/>
<path d="M5.46551 30.7151C5.21818 31.9643 5.46551 33.2329 6.17355 34.2877C7.13861 35.7362 8.76322 36.4848 10.3878 36.3973V41.1025C10.4315 44.0238 10.48 46.9451 10.5236 49.8664C9.98531 50.0025 6.52756 50.824 3.37049 48.6318C1.02815 47.0034 0.242523 44.6848 0.024292 43.946V0H4.69928C4.83506 0.0291645 4.97085 0.058329 5.10664 0.0874934C5.15029 0.0972149 5.18908 0.106936 5.23273 0.116658C5.32972 0.140962 5.42671 0.165265 5.5237 0.189569C5.64494 0.218734 5.77103 0.252759 5.88742 0.286784C6.24629 0.383999 6.59546 0.490935 6.94463 0.607593C7.00767 0.627036 7.07072 0.65134 7.12891 0.670783C7.20165 0.695087 7.2744 0.71939 7.34714 0.748555C7.40534 0.767998 7.46353 0.792302 7.52173 0.811745C7.58477 0.836048 7.65266 0.860352 7.71571 0.884656C7.82725 0.928402 7.94364 0.972149 8.05518 1.0159C8.11822 1.0402 8.18127 1.06936 8.24431 1.09367C8.30736 1.11797 8.3704 1.14714 8.43344 1.17144C8.47709 1.19088 8.52559 1.21033 8.56923 1.22977C8.68077 1.27838 8.79231 1.32698 8.90385 1.38045C8.9572 1.40476 9.00569 1.42906 9.05419 1.4485C9.27727 1.55544 9.50035 1.66724 9.72343 1.77903C9.84467 1.84222 9.96591 1.90541 10.0823 1.9686C10.1405 2.00263 10.1987 2.03179 10.2617 2.06582C10.3199 2.09984 10.3781 2.13387 10.4363 2.16789C10.4945 2.20192 10.5527 2.23594 10.6109 2.26997C10.6691 2.30399 10.7273 2.33802 10.7855 2.37204C10.9019 2.44009 11.0183 2.51301 11.1298 2.58592C11.188 2.61994 11.2413 2.65883 11.2995 2.69285C11.3577 2.72688 11.4111 2.76576 11.4693 2.80465C11.5226 2.84354 11.5808 2.87756 11.639 2.91645C11.6924 2.95533 11.7506 2.99422 11.8039 3.02824C16.8038 6.45993 20.1403 12.147 20.3537 18.6264C20.3537 18.7673 20.3634 18.9034 20.3634 19.0444V19.0638L7.47808 27.6819C6.42087 28.3868 5.70314 29.4658 5.45581 30.7102L5.46551 30.7151Z" fill="url(#paint1_linear_105_14)"/>
<path style="mix-blend-mode:multiply" d="M40.1448 1.2006C39.4222 6.40646 36.7258 10.9756 32.8413 14.1302C31.2555 13.124 29.2332 13.1435 27.662 14.1934L21.0568 18.6118C20.8289 18.6215 20.5961 18.6264 20.3634 18.6312C20.1791 13.0171 17.6476 7.99593 13.7243 4.52049C13.6225 4.433 13.5206 4.34551 13.4188 4.25801C13.2248 4.09275 13.0308 3.93234 12.8271 3.7768C12.7544 3.71847 12.6768 3.66014 12.5992 3.60181C12.5556 3.56779 12.5119 3.53862 12.4683 3.5046C12.4149 3.46571 12.3616 3.42197 12.3034 3.38308C12.25 3.34419 12.1967 3.30531 12.1385 3.26642C12.0851 3.22754 12.027 3.18865 11.9736 3.14976C11.6972 2.95533 11.4159 2.77063 11.1298 2.59078C11.0182 2.51787 10.9019 2.44982 10.7855 2.3769C10.6691 2.30885 10.5527 2.2408 10.4363 2.17275C10.3781 2.13873 10.3199 2.1047 10.2617 2.07068C10.0871 1.97346 9.90769 1.87625 9.72341 1.78389C9.61187 1.72556 9.50033 1.6721 9.38879 1.61377C9.37909 1.60891 9.36939 1.60405 9.35969 1.59919C9.25785 1.55058 9.15601 1.50197 9.05417 1.45336C9.00567 1.42906 8.95232 1.40476 8.90383 1.38531C8.85048 1.36101 8.79229 1.33184 8.73894 1.30754C8.6856 1.28324 8.6274 1.25893 8.57406 1.23463C8.29278 1.11311 8.01151 0.996453 7.72053 0.884656C7.65749 0.860352 7.5896 0.836048 7.52655 0.811745C7.46836 0.787441 7.41016 0.767998 7.35197 0.748555C7.27922 0.71939 7.20648 0.695087 7.13374 0.670783C7.07069 0.65134 7.00765 0.627036 6.94945 0.607593C6.87186 0.578429 6.78942 0.554125 6.71182 0.529821C6.69243 0.524961 6.67303 0.515239 6.65363 0.510378C6.58573 0.486075 6.51299 0.466632 6.4451 0.447189C6.43055 0.447189 6.416 0.437467 6.4063 0.437467C6.24626 0.38886 6.08138 0.340252 5.91649 0.296506C5.90679 0.296506 5.90195 0.296506 5.89225 0.291645C5.77101 0.25762 5.64977 0.228455 5.52853 0.19443H5.51883C5.43639 0.174987 5.35394 0.155544 5.2715 0.136101C5.08237 0.0826327 4.89323 0.038886 4.7041 0H29.7861C33.4281 0 36.8907 0.418024 40.1448 1.2006Z" fill="url(#paint2_linear_105_14)"/>
<path d="M67.7388 36.9417C67.7388 52.7634 59.2763 65.2847 46.0224 70.8551C53.2289 65.6249 57.9233 57.1283 57.9233 47.5284C57.9233 42.653 56.7109 38.0596 54.5771 34.0349C55.159 33.0336 55.353 31.8671 55.1251 30.7199C54.8777 29.4707 54.16 28.3965 53.1028 27.6917L32.9334 14.1982C32.8995 14.1788 32.8704 14.1545 32.8364 14.135C31.2506 13.1289 29.2284 13.1483 27.6571 14.1982L21.052 18.6167L20.9647 18.675H20.373V19.0541C20.373 19.0201 20.373 18.9861 20.373 18.9472C20.373 18.8451 20.3633 18.7382 20.3633 18.6361C20.2906 18.6361 20.2179 18.641 20.1403 18.641C9.62639 18.6361 0.994162 10.5916 0.0290974 0.306227C0.0193983 0.204151 0.00969914 0.102076 0 0H29.7861C33.4281 0 36.8907 0.418024 40.1447 1.2006C56.7594 5.19128 67.7436 18.8548 67.7436 36.9417H67.7388Z" fill="url(#paint3_linear_105_14)"/>
<path d="M57.9281 47.5235C57.9281 57.1235 53.2337 65.6201 46.0272 70.8502C41.1922 72.882 35.7219 74 29.786 74H0.0290527C0.0290527 72.1189 0.305478 70.301 0.824382 68.5851C1.12506 67.5838 2.04162 64.8375 4.38397 61.9939C5.80974 60.2635 8.39456 57.1235 11.4013 57.4346C11.6098 57.454 11.7796 57.488 11.8863 57.5172H48.709C49.5383 57.5172 50.2076 56.8464 50.2076 56.0152V36.3973C50.2948 36.3973 50.3773 36.407 50.4646 36.407C51.2599 36.407 52.0261 36.2077 52.7099 35.8431C53.3889 35.4786 53.9805 34.9487 54.4218 34.2877C54.48 34.2002 54.5334 34.1176 54.5819 34.0252C56.7205 38.0499 57.9281 42.6433 57.9281 47.5186V47.5235Z" fill="url(#paint4_linear_105_14)"/>
<path d="M20.3779 19.2923C20.3779 19.3749 20.373 19.4576 20.373 19.5353V19.0638C20.373 19.1368 20.3779 19.2145 20.3779 19.2874V19.2923Z" fill="white"/>
<path d="M36.6288 44.4953V57.5172H23.9666V44.4953C23.9666 43.6835 24.6261 43.0225 25.436 43.0225H35.1594C35.9692 43.0225 36.6288 43.6835 36.6288 44.4953Z" fill="url(#paint5_linear_105_14)"/>
</g>
</g>
<defs>
<linearGradient id="paint0_linear_105_14" x1="-11.8038" y1="53.3613" x2="13.5104" y2="4.76261" gradientUnits="userSpaceOnUse">
<stop stop-color="#DB00F4"/>
<stop offset="0.1" stop-color="#D103F2"/>
<stop offset="0.26" stop-color="#B60CEC"/>
<stop offset="0.46" stop-color="#8C1AE4"/>
<stop offset="0.71" stop-color="#502ED8"/>
<stop offset="0.98" stop-color="#0548C9"/>
<stop offset="1" stop-color="#004AC8"/>
</linearGradient>
<linearGradient id="paint1_linear_105_14" x1="0.567445" y1="39.4061" x2="13.2678" y2="0.561642" gradientUnits="userSpaceOnUse">
<stop stop-color="#94BDED"/>
<stop offset="0.48" stop-color="#2C5493"/>
<stop offset="0.51" stop-color="#2A4B8A"/>
<stop offset="0.59" stop-color="#273776"/>
<stop offset="0.69" stop-color="#242968"/>
<stop offset="0.8" stop-color="#232160"/>
<stop offset="1" stop-color="#231F5E"/>
</linearGradient>
<linearGradient id="paint2_linear_105_14" x1="66.444" y1="-14.1594" x2="9.56396" y2="11.0485" gradientUnits="userSpaceOnUse">
<stop stop-color="#38E4DF"/>
<stop offset="0.15" stop-color="#34DCDD"/>
<stop offset="0.37" stop-color="#2AC8DA"/>
<stop offset="0.64" stop-color="#1AA6D5"/>
<stop offset="0.95" stop-color="#0478CE"/>
<stop offset="1" stop-color="#0070CD"/>
</linearGradient>
<linearGradient id="paint3_linear_105_14" x1="-14.9173" y1="-12.4192" x2="91.4433" y2="71.8561" gradientUnits="userSpaceOnUse">
<stop offset="0.09" stop-color="#ABC6DD"/>
<stop offset="0.61" stop-color="#2C5493"/>
<stop offset="0.74" stop-color="#283C7B"/>
<stop offset="0.95" stop-color="#242665"/>
<stop offset="1" stop-color="#231F5E"/>
</linearGradient>
<linearGradient id="paint4_linear_105_14" x1="-19.8251" y1="53.0259" x2="75.7747" y2="55.0241" gradientUnits="userSpaceOnUse">
<stop stop-color="#94BDED"/>
<stop offset="0.48" stop-color="#2C5493"/>
<stop offset="0.51" stop-color="#2A4B8A"/>
<stop offset="0.59" stop-color="#273776"/>
<stop offset="0.69" stop-color="#242968"/>
<stop offset="0.8" stop-color="#232160"/>
<stop offset="1" stop-color="#231F5E"/>
</linearGradient>
<linearGradient id="paint5_linear_105_14" x1="30.3874" y1="53.4342" x2="29.9246" y2="40.7526" gradientUnits="userSpaceOnUse">
<stop stop-color="#94BDED"/>
<stop offset="0.48" stop-color="#2C5493"/>
<stop offset="0.51" stop-color="#2A4B8A"/>
<stop offset="0.59" stop-color="#273776"/>
<stop offset="0.69" stop-color="#242968"/>
<stop offset="0.8" stop-color="#232160"/>
<stop offset="1" stop-color="#231F5E"/>
</linearGradient>
<clipPath id="clip0_105_14">
<rect width="309" height="74" fill="white"/>
</clipPath>
</defs>
</svg>
