<svg width="51" height="51" viewBox="0 0 51 51" fill="none" xmlns="http://www.w3.org/2000/svg">
<g clip-path="url(#clip0_227_3764)">
<path d="M25.3332 50.6166C39.1265 50.6166 50.3082 39.4349 50.3082 25.6416C50.3082 11.8483 39.1265 0.666626 25.3332 0.666626C11.5398 0.666626 0.358154 11.8483 0.358154 25.6416C0.358154 39.4349 11.5398 50.6166 25.3332 50.6166Z" fill="#2A4887"/>
<g clip-path="url(#clip1_227_3764)">
<path d="M40.777 29.0393C40.7769 29.0393 40.7769 29.0393 40.777 29.0393L40.0236 28.6044C37.5324 27.166 37.526 23.4193 40.0236 21.9772L40.777 21.5423C41.7437 20.9842 42.076 19.7437 41.5179 18.7772L39.0663 14.5308C38.5083 13.5643 37.2679 13.2321 36.3011 13.7899L35.5512 14.223C33.0768 15.6513 29.8087 13.815 29.8087 10.9149V10.0413C29.8087 8.92517 28.9006 8.01709 27.7844 8.01709H22.8812C21.765 8.01709 20.8569 8.92517 20.8569 10.0413V10.9147C20.8569 13.8156 17.5881 15.6509 15.1144 14.2229L14.3644 13.7898C13.3955 13.2303 12.1587 13.5617 11.5992 14.5307L9.14759 18.777C8.58951 19.7436 8.92182 20.984 9.88854 21.5422L10.6418 21.9771C13.133 23.4154 13.1395 27.1622 10.6418 28.6043L9.88841 29.0392C8.92175 29.5973 8.58944 30.8378 9.14753 31.8043L11.5991 36.0507C12.1572 37.0172 13.3976 37.3498 14.3642 36.7915L15.1143 36.3585C17.5898 34.9295 20.8568 36.7701 20.8568 39.6666V40.5402C20.8568 41.6564 21.7649 42.5644 22.881 42.5644H27.7843C28.9004 42.5644 29.8085 41.6564 29.8085 40.5402V39.6668C29.8085 36.7662 33.0771 34.9305 35.551 36.3587L36.3011 36.7918C37.2677 37.3498 38.5082 37.0174 39.0663 36.0509L41.5179 31.8045C42.0773 30.8356 41.7459 29.5987 40.777 29.0393ZM37.3132 35.0387L36.5631 34.6056C32.7463 32.4019 27.7843 35.2009 27.7843 39.6668V40.5402H22.881V39.6668C22.881 35.1954 17.9141 32.4047 14.1022 34.6056L13.3521 35.0387L10.9005 30.7923L11.6538 30.3574C13.4369 29.328 14.5414 27.3963 14.5367 25.3151V25.2653C14.5415 23.1853 13.4369 21.2537 11.6538 20.2242L10.9005 19.7893L13.3521 15.5429L14.1022 15.976C17.9189 18.1797 22.881 15.3807 22.881 10.9148V10.0413H27.7843V10.9147C27.7843 15.3393 32.7105 18.2001 36.5631 15.9759L37.3132 15.5429L39.7649 19.7892L39.0115 20.2241C35.1649 22.445 35.1704 28.1397 39.0115 30.3574L39.7649 30.7923L37.3132 35.0387Z" fill="white"/>
<path d="M25.3326 16.6118C20.547 16.6118 16.6536 20.5051 16.6536 25.2908C16.6536 30.0764 20.547 33.9697 25.3326 33.9697C30.1182 33.9697 34.0115 30.0764 34.0115 25.2908C34.0115 20.5051 30.1182 16.6118 25.3326 16.6118ZM25.3326 31.9454C21.6631 31.9454 18.6778 28.9602 18.6778 25.2908C18.6778 21.6213 21.6631 18.6361 25.3326 18.6361C29.002 18.6361 31.9873 21.6213 31.9873 25.2908C31.9873 28.9602 29.002 31.9454 25.3326 31.9454Z" fill="white"/>
<path d="M27.6706 22.9374L24.2435 25.4811L23.1293 24.294C22.7468 23.8863 22.1062 23.866 21.6987 24.2486C21.291 24.6311 21.2707 25.2717 21.6533 25.6792L23.3846 27.5239C23.7365 27.899 24.3135 27.9501 24.7258 27.644L28.877 24.5629C29.3258 24.2297 29.4196 23.5957 29.0864 23.1469C28.7533 22.6982 28.1194 22.6044 27.6706 22.9374Z" fill="white"/>
</g>
</g>
<defs>
<clipPath id="clip0_227_3764">
<rect width="49.95" height="49.95" fill="white" transform="translate(0.358154 0.666626)"/>
</clipPath>
<clipPath id="clip1_227_3764">
<rect width="34.5474" height="34.5474" fill="white" transform="translate(8.05957 8.01709)"/>
</clipPath>
</defs>
</svg>
