<svg width="50" height="51" viewBox="0 0 50 51" fill="none" xmlns="http://www.w3.org/2000/svg">
<g clip-path="url(#clip0_227_3627)">
<path d="M25 50.2834C38.7933 50.2834 49.975 39.1017 49.975 25.3084C49.975 11.5151 38.7933 0.333374 25 0.333374C11.2067 0.333374 0.0250244 11.5151 0.0250244 25.3084C0.0250244 39.1017 11.2067 50.2834 25 50.2834Z" fill="#2A4887"/>
<path d="M24.1604 19.1854C24.3831 19.4081 24.6851 19.5331 25 19.5331C25.3149 19.5331 25.6169 19.4081 25.8396 19.1854L30.8271 14.1979C30.9405 14.0884 31.031 13.9574 31.0932 13.8125C31.1554 13.6676 31.1882 13.5118 31.1896 13.3541C31.1909 13.1964 31.1609 13.0401 31.1012 12.8941C31.0415 12.7482 30.9533 12.6156 30.8418 12.5041C30.7303 12.3926 30.5977 12.3044 30.4518 12.2447C30.3058 12.185 30.1495 12.155 29.9918 12.1563C29.8341 12.1577 29.6783 12.1905 29.5334 12.2527C29.3885 12.3149 29.2575 12.4054 29.1479 12.5188L26.1875 15.4792V6.70837C26.1875 6.39343 26.0624 6.09138 25.8397 5.86868C25.617 5.64599 25.315 5.52087 25 5.52087C24.6851 5.52087 24.383 5.64599 24.1603 5.86868C23.9376 6.09138 23.8125 6.39343 23.8125 6.70837V15.4792L20.8521 12.5188C20.6281 12.3025 20.3281 12.1828 20.0168 12.1855C19.7054 12.1882 19.4076 12.3131 19.1874 12.5333C18.9672 12.7534 18.8424 13.0513 18.8396 13.3626C18.8369 13.674 18.9566 13.974 19.1729 14.1979L24.1604 19.1854Z" fill="white"/>
<path d="M42.6937 22.8026L37.7063 12.8276C37.6072 12.6293 37.4545 12.4627 37.2657 12.3466C37.0768 12.2306 36.8592 12.1697 36.6375 12.1709H34.975C34.6601 12.1709 34.358 12.296 34.1353 12.5187C33.9126 12.7414 33.7875 13.0435 33.7875 13.3584C33.7875 13.6734 33.9126 13.9754 34.1353 14.1981C34.358 14.4208 34.6601 14.5459 34.975 14.5459H35.9036L39.7036 22.1459H31.65C31.3351 22.1459 31.033 22.271 30.8103 22.4937C30.5876 22.7164 30.4625 23.0185 30.4625 23.3334V27.1334H19.5375V23.3334C19.5375 23.0185 19.4124 22.7164 19.1897 22.4937C18.967 22.271 18.6649 22.1459 18.35 22.1459H10.2964L14.0964 14.5459H15.025C15.3399 14.5459 15.642 14.4208 15.8647 14.1981C16.0874 13.9754 16.2125 13.6734 16.2125 13.3584C16.2125 13.0435 16.0874 12.7414 15.8647 12.5187C15.642 12.296 15.3399 12.1709 15.025 12.1709H13.3625C13.142 12.171 12.9259 12.2325 12.7384 12.3485C12.5509 12.4645 12.3994 12.6304 12.3009 12.8276L7.31337 22.8026C7.23079 22.9674 7.1877 23.1491 7.1875 23.3334V35.7772C7.18907 37.2006 7.7552 38.5652 8.76169 39.5717C9.76817 40.5782 11.1328 41.1443 12.5562 41.1459H37.4438C38.8672 41.1443 40.2318 40.5782 41.2383 39.5717C42.2448 38.5652 42.8109 37.2006 42.8125 35.7772V23.3334C42.8145 23.1497 42.7739 22.968 42.6937 22.8026ZM37.4438 38.7709H12.5562C11.7625 38.77 11.0016 38.4543 10.4404 37.893C9.87915 37.3318 9.56344 36.5709 9.5625 35.7772V24.5209H17.1625V28.3209C17.1625 28.6359 17.2876 28.9379 17.5103 29.1606C17.733 29.3833 18.0351 29.5084 18.35 29.5084H31.65C31.9649 29.5084 32.267 29.3833 32.4897 29.1606C32.7124 28.9379 32.8375 28.6359 32.8375 28.3209V24.5209H40.4375V35.7772C40.4366 36.5709 40.1208 37.3318 39.5596 37.893C38.9984 38.4543 38.2375 38.77 37.4438 38.7709Z" fill="white"/>
</g>
<defs>
<clipPath id="clip0_227_3627">
<rect width="49.95" height="49.95" fill="white" transform="translate(0.0250244 0.333374)"/>
</clipPath>
</defs>
</svg>
