<svg width="50" height="51" viewBox="0 0 50 51" fill="none" xmlns="http://www.w3.org/2000/svg">
<g clip-path="url(#clip0_227_3664)">
<path d="M24.9999 50.2834C38.7932 50.2834 49.9749 39.1017 49.9749 25.3084C49.9749 11.5151 38.7932 0.333374 24.9999 0.333374C11.2066 0.333374 0.0249023 11.5151 0.0249023 25.3084C0.0249023 39.1017 11.2066 50.2834 24.9999 50.2834Z" fill="#2A4887"/>
<g clip-path="url(#clip1_227_3664)">
<path d="M36.4844 12.6771H35.0781V10.3334H32.7344V12.6771H17.2656V10.3334H14.9219V12.6771H13.5156C11.5771 12.6771 10 14.2542 10 16.1927V36.8177C10 38.7563 11.5771 40.3334 13.5156 40.3334H36.4844C38.4229 40.3334 40 38.7563 40 36.8177V16.1927C40 14.2542 38.4229 12.6771 36.4844 12.6771ZM37.6562 36.8177C37.6562 37.4639 37.1305 37.9896 36.4844 37.9896H13.5156C12.8695 37.9896 12.3438 37.4639 12.3438 36.8177V21.349H37.6562V36.8177ZM37.6562 19.0052H12.3438V16.1927C12.3438 15.5466 12.8695 15.0209 13.5156 15.0209H14.9219V17.3646H17.2656V15.0209H32.7344V17.3646H35.0781V15.0209H36.4844C37.1305 15.0209 37.6562 15.5466 37.6562 16.1927V19.0052Z" fill="white"/>
<path d="M14.4531 23.8099H16.7969V26.1537H14.4531V23.8099ZM19.1406 23.8099H21.4844V26.1537H19.1406V23.8099ZM23.8281 23.8099H26.1719V26.1537H23.8281V23.8099ZM28.5156 23.8099H30.8594V26.1537H28.5156V23.8099ZM33.2031 23.8099H35.5469V26.1537H33.2031V23.8099ZM14.4531 28.4974H16.7969V30.8412H14.4531V28.4974ZM19.1406 28.4974H21.4844V30.8412H19.1406V28.4974ZM23.8281 28.4974H26.1719V30.8412H23.8281V28.4974ZM28.5156 28.4974H30.8594V30.8412H28.5156V28.4974ZM14.4531 33.1849H16.7969V35.5287H14.4531V33.1849ZM19.1406 33.1849H21.4844V35.5287H19.1406V33.1849ZM23.8281 33.1849H26.1719V35.5287H23.8281V33.1849ZM28.5156 33.1849H30.8594V35.5287H28.5156V33.1849ZM33.2031 28.4974H35.5469V30.8412H33.2031V28.4974Z" fill="white"/>
</g>
</g>
<defs>
<clipPath id="clip0_227_3664">
<rect width="49.95" height="49.95" fill="white" transform="translate(0.0249023 0.333374)"/>
</clipPath>
<clipPath id="clip1_227_3664">
<rect width="30" height="30" fill="white" transform="translate(10 10.3334)"/>
</clipPath>
</defs>
</svg>
