<svg width="51" height="51" viewBox="0 0 51 51" fill="none" xmlns="http://www.w3.org/2000/svg">
<g clip-path="url(#clip0_227_3694)">
<path d="M25.6664 50.2834C39.4597 50.2834 50.6414 39.1017 50.6414 25.3084C50.6414 11.5151 39.4597 0.333374 25.6664 0.333374C11.8731 0.333374 0.691406 11.5151 0.691406 25.3084C0.691406 39.1017 11.8731 50.2834 25.6664 50.2834Z" fill="#2A4887"/>
</g>
<path d="M37.3154 18.1354H34.3033V11.6577C34.3033 11.3714 34.1896 11.0968 33.9871 10.8943C33.7846 10.6919 33.51 10.5781 33.2237 10.5781H18.1092C17.8229 10.5781 17.5483 10.6919 17.3458 10.8943C17.1434 11.0968 17.0296 11.3714 17.0296 11.6577V18.1354H14.0175C13.0984 18.1354 12.2169 18.5005 11.567 19.1504C10.9171 19.8003 10.552 20.6818 10.552 21.6009V29.7843C10.552 30.7034 10.9171 31.5849 11.567 32.2348C12.2169 32.8847 13.0984 33.2498 14.0175 33.2498H17.0296V37.5682C17.0296 37.8546 17.1434 38.1292 17.3458 38.3316C17.5483 38.5341 17.8229 38.6479 18.1092 38.6479H33.2237C33.51 38.6479 33.7846 38.5341 33.9871 38.3316C34.1896 38.1292 34.3033 37.8546 34.3033 37.5682V33.2498H37.3154C38.2345 33.2498 39.116 32.8847 39.7659 32.2348C40.4158 31.5849 40.7809 30.7034 40.7809 29.7843V21.6009C40.7809 20.6818 40.4158 19.8003 39.7659 19.1504C39.116 18.5005 38.2345 18.1354 37.3154 18.1354ZM19.1888 12.7373H32.1441V18.1354H19.1888V12.7373ZM32.1441 36.4886H19.1888V30.011H32.1441V36.4886ZM38.6217 29.7843C38.6217 29.9558 38.5879 30.1257 38.5223 30.2842C38.4566 30.4427 38.3604 30.5867 38.2391 30.708C38.1178 30.8293 37.9738 30.9255 37.8153 30.9912C37.6568 31.0568 37.487 31.0906 37.3154 31.0906H34.3033V30.011H36.4625C36.7488 30.011 37.0235 29.8973 37.2259 29.6948C37.4284 29.4923 37.5421 29.2177 37.5421 28.9314C37.5421 28.6451 37.4284 28.3705 37.2259 28.168C37.0235 27.9655 36.7488 27.8518 36.4625 27.8518H14.8704C14.5841 27.8518 14.3095 27.9655 14.107 28.168C13.9046 28.3705 13.7908 28.6451 13.7908 28.9314C13.7908 29.2177 13.9046 29.4923 14.107 29.6948C14.3095 29.8973 14.5841 30.011 14.8704 30.011H17.0296V31.0906H14.0175C13.846 31.0906 13.6761 31.0568 13.5176 30.9912C13.3591 30.9255 13.2151 30.8293 13.0938 30.708C12.9725 30.5867 12.8763 30.4427 12.8106 30.2842C12.745 30.1257 12.7112 29.9558 12.7112 29.7843V21.6009C12.7112 21.2544 12.8488 20.9222 13.0938 20.6772C13.3388 20.4322 13.6711 20.2946 14.0175 20.2946H37.3154C37.6619 20.2946 37.9941 20.4322 38.2391 20.6772C38.4841 20.9222 38.6217 21.2544 38.6217 21.6009V29.7843Z" fill="white"/>
<path d="M15.4102 24.613C16.3046 24.613 17.0296 23.8879 17.0296 22.9936C17.0296 22.0992 16.3046 21.3741 15.4102 21.3741C14.5158 21.3741 13.7908 22.0992 13.7908 22.9936C13.7908 23.8879 14.5158 24.613 15.4102 24.613Z" fill="white"/>
<path d="M19.7285 24.613C20.6229 24.613 21.3479 23.8879 21.3479 22.9936C21.3479 22.0992 20.6229 21.3741 19.7285 21.3741C18.8342 21.3741 18.1091 22.0992 18.1091 22.9936C18.1091 23.8879 18.8342 24.613 19.7285 24.613Z" fill="white"/>
<defs>
<clipPath id="clip0_227_3694">
<rect width="49.95" height="49.95" fill="white" transform="translate(0.691406 0.333374)"/>
</clipPath>
</defs>
</svg>
