<svg width="51" height="51" viewBox="0 0 51 51" fill="none" xmlns="http://www.w3.org/2000/svg">
<g clip-path="url(#clip0_227_3725)">
<path d="M25.3334 50.6166C39.1267 50.6166 50.3084 39.4349 50.3084 25.6416C50.3084 11.8483 39.1267 0.666626 25.3334 0.666626C11.5401 0.666626 0.358398 11.8483 0.358398 25.6416C0.358398 39.4349 11.5401 50.6166 25.3334 50.6166Z" fill="#2A4887"/>
<path d="M38.9277 14.8879C38.927 14.877 38.9259 14.8662 38.925 14.8553C38.9219 14.8161 38.9175 14.777 38.9119 14.738C38.9069 14.7039 38.901 14.6699 38.8941 14.6361L38.8925 14.6276C38.7646 14.0186 38.3286 13.5017 37.6829 13.0792C37.2691 12.806 36.8247 12.607 36.4719 12.4735C35.3556 12.0513 33.9426 11.7889 32.4241 11.7147C32.2536 11.7064 32.0829 11.7003 31.9121 11.6965L31.8579 11.6954C31.6421 11.6914 31.4262 11.6914 31.2104 11.6954L31.1561 11.6965C30.9854 11.7003 30.8148 11.7064 30.6442 11.7147C29.1257 11.7889 27.7127 12.0513 26.5963 12.4735C26.2432 12.607 25.7983 12.8064 25.3841 13.0801C24.739 13.5024 24.3035 14.0191 24.1757 14.6276C24.1751 14.6304 24.1746 14.6333 24.1741 14.6361C24.1651 14.6798 24.1578 14.7239 24.1522 14.7682C24.1485 14.797 24.1455 14.826 24.1431 14.8553C24.1423 14.8662 24.1412 14.877 24.1405 14.8879C24.1379 14.9272 24.1365 14.9666 24.1364 15.006V19.9392C22.7088 19.1822 20.5458 18.7935 18.3979 18.7935C14.7214 18.7934 10.9999 19.9317 10.9999 22.1071V36.3093C10.9999 38.4847 14.7214 39.6228 18.3976 39.6228C21.0206 39.6228 23.6662 39.0433 24.9671 37.9211C25.4766 38.3619 26.1198 38.6616 26.5961 38.8417C27.9281 39.3454 29.6817 39.6229 31.534 39.6229C33.3862 39.6229 35.1398 39.3454 36.4718 38.8417C37.3905 38.4943 38.9318 37.7033 38.9318 36.3094V15.0059C38.9318 14.9662 38.9302 14.927 38.9277 14.8879ZM24.1361 36.3094C24.1362 36.4855 23.7595 36.9075 22.7486 37.2898C21.5995 37.7243 20.0543 37.9637 18.3976 37.9637C16.741 37.9637 15.1958 37.7243 14.0467 37.2898C13.0359 36.9075 12.6592 36.4855 12.6592 36.3094V34.9267C14.0867 35.6837 16.2498 36.0724 18.3976 36.0724C20.5455 36.0724 22.7086 35.6837 24.1361 34.9267V36.3094ZM24.1361 32.7588C24.1361 32.935 23.7594 33.3569 22.7485 33.7393C21.5994 34.1738 20.0543 34.4132 18.3976 34.4132C16.741 34.4132 15.1958 34.1738 14.0467 33.7393C13.0359 33.3569 12.6592 32.9349 12.6592 32.7588V31.3762C14.0867 32.1332 16.2498 32.5219 18.3976 32.5219C20.5455 32.5219 22.7086 32.1332 24.1361 31.3762V32.7588ZM24.1361 29.2082C24.1361 29.3844 23.7594 29.8063 22.7485 30.1887C21.5994 30.6232 20.0543 30.8626 18.3976 30.8626C16.741 30.8626 15.1958 30.6233 14.0467 30.1887C13.0359 29.8064 12.6592 29.3844 12.6592 29.2082V27.8256C14.0867 28.5826 16.2498 28.9713 18.3976 28.9713C20.5455 28.9713 22.7086 28.5826 24.1361 27.8256V29.2082ZM24.1361 25.6577C24.1361 25.8338 23.7594 26.2557 22.7485 26.6381C21.5994 27.0726 20.0543 27.312 18.3976 27.312C16.741 27.312 15.1958 27.0727 14.0467 26.6381C13.0359 26.2557 12.6592 25.8338 12.6592 25.6577V24.275C14.0868 25.032 16.2498 25.4207 18.3977 25.4207C20.5456 25.4207 22.7086 25.032 24.1362 24.275V25.6577H24.1361ZM22.7486 23.0875C21.5995 23.5221 20.0543 23.7614 18.3977 23.7614C16.741 23.7614 15.1959 23.5221 14.0467 23.0875C13.0359 22.7052 12.6592 22.2832 12.6592 22.1071C12.6592 21.931 13.0359 21.5089 14.0467 21.1266C15.1958 20.6921 16.741 20.4527 18.3977 20.4527C20.0543 20.4527 21.5995 20.692 22.7486 21.1266C23.7594 21.5089 24.1362 21.9309 24.1362 22.1071C24.1362 22.2833 23.7595 22.7052 22.7486 23.0875ZM37.2725 36.3094C37.2725 36.4855 36.8958 36.9075 35.8849 37.2898C34.7358 37.7243 33.1906 37.9637 31.534 37.9637C29.8773 37.9637 28.3321 37.7243 27.183 37.2898C26.1722 36.9075 25.7954 36.4855 25.7954 36.3094V34.9267C27.223 35.6837 29.3861 36.0724 31.534 36.0724C33.6818 36.0724 35.8449 35.6837 37.2725 34.9267V36.3094ZM37.2725 32.7588C37.2725 32.9349 36.8958 33.3569 35.8849 33.7392C34.7358 34.1737 33.1906 34.4131 31.534 34.4131C29.8773 34.4131 28.3321 34.1738 27.183 33.7392C26.1722 33.3569 25.7954 32.935 25.7954 32.7587V31.3762C27.223 32.1332 29.3861 32.5219 31.534 32.5219C33.6818 32.5219 35.8449 32.1332 37.2725 31.3762V32.7588ZM37.2725 29.2082C37.2725 29.3844 36.8958 29.8064 35.8849 30.1887C34.7358 30.6232 33.1906 30.8626 31.534 30.8626C29.8773 30.8626 28.3321 30.6233 27.183 30.1887C26.1722 29.8064 25.7954 29.3844 25.7954 29.2082V27.8256C27.223 28.5826 29.3861 28.9713 31.534 28.9713C33.6818 28.9713 35.8449 28.5826 37.2725 27.8256V29.2082ZM37.2725 25.6577C37.2725 25.8338 36.8958 26.2557 35.8849 26.6381C34.7358 27.0726 33.1906 27.312 31.534 27.312C29.8773 27.312 28.3321 27.0727 27.183 26.6381C26.1722 26.2558 25.7954 25.8339 25.7954 25.6577V24.275C27.223 25.032 29.3861 25.4207 31.534 25.4207C33.6818 25.4207 35.8449 25.032 37.2725 24.275V25.6577ZM37.2725 22.1071C37.2725 22.2832 36.8958 22.7052 35.8849 23.0875C34.7358 23.522 33.1906 23.7614 31.534 23.7614C29.8773 23.7614 28.3321 23.5221 27.183 23.0875C26.1722 22.7052 25.7954 22.2832 25.7954 22.107V20.7245C27.223 21.4815 29.3861 21.8702 31.534 21.8702C33.6818 21.8702 35.8449 21.4815 37.2725 20.7245V22.1071ZM37.2725 18.5565C37.2725 18.7327 36.8958 19.1546 35.8849 19.537C34.7358 19.9715 33.1906 20.2109 31.534 20.2109C29.8773 20.2109 28.3321 19.9715 27.183 19.537C26.1722 19.1546 25.7954 18.7327 25.7954 18.5565V17.1739C27.223 17.9309 29.3861 18.3196 31.534 18.3196C33.6818 18.3196 35.8449 17.9309 37.2725 17.1739V18.5565ZM35.8849 15.9863C34.7358 16.4209 33.1906 16.6603 31.534 16.6603C29.8774 16.6603 28.3322 16.4209 27.1831 15.9863C26.1723 15.604 25.7955 15.1821 25.7955 15.0059C25.7955 15.0004 25.7959 14.9946 25.7966 14.9887C25.8197 14.8035 26.2038 14.3959 27.183 14.0256C28.3321 13.5911 29.8773 13.3517 31.534 13.3517C33.1906 13.3517 34.7358 13.5911 35.8849 14.0256C36.8641 14.396 37.2483 14.8035 37.2713 14.9887C37.272 14.9946 37.2724 15.0004 37.2724 15.0059C37.2725 15.182 36.8958 15.604 35.8849 15.9863Z" fill="white"/>
</g>
<defs>
<clipPath id="clip0_227_3725">
<rect width="49.95" height="49.95" fill="white" transform="translate(0.358398 0.666626)"/>
</clipPath>
</defs>
</svg>
