<svg width="51" height="51" viewBox="0 0 51 51" fill="none" xmlns="http://www.w3.org/2000/svg">
<g clip-path="url(#clip0_227_3652)">
<path d="M25.6667 50.2834C39.46 50.2834 50.6417 39.1017 50.6417 25.3084C50.6417 11.5151 39.46 0.333374 25.6667 0.333374C11.8733 0.333374 0.69165 11.5151 0.69165 25.3084C0.69165 39.1017 11.8733 50.2834 25.6667 50.2834Z" fill="#2A4887"/>
<path d="M26.0342 10.9916C18.1309 10.9916 11.7007 17.4218 11.7007 25.3251C11.7007 33.2283 18.1309 39.6585 26.0342 39.6585C33.9374 39.6585 40.3676 33.2283 40.3676 25.3251C40.3676 17.4218 33.9374 10.9916 26.0342 10.9916ZM26.0342 37.4534C19.3467 37.4534 13.9058 32.0125 13.9058 25.3251C13.9058 18.6376 19.3467 13.1967 26.0342 13.1967C32.7216 13.1967 38.1625 18.6376 38.1625 25.3251C38.1625 32.0125 32.7216 37.4534 26.0342 37.4534ZM27.5043 24.2225H26.7692V20.5472H28.9744C29.2668 20.5472 29.5472 20.4311 29.754 20.2243C29.9608 20.0175 30.0769 19.7371 30.0769 19.4447C30.0769 19.1522 29.9608 18.8718 29.754 18.665C29.5472 18.4582 29.2668 18.3421 28.9744 18.3421H26.7692V17.2395C26.7692 17.0446 26.6918 16.8576 26.5539 16.7197C26.4161 16.5819 26.2291 16.5045 26.0342 16.5045C25.8392 16.5045 25.6523 16.5819 25.5144 16.7197C25.3766 16.8576 25.2991 17.0446 25.2991 17.2395V18.3421H24.5641C22.3339 18.3421 20.5213 20.1547 20.5213 22.3849C20.5213 24.615 22.3339 26.4276 24.5641 26.4276H25.2991V30.1029H23.094C22.8015 30.1029 22.5211 30.219 22.3143 30.4258C22.1076 30.6326 21.9914 30.913 21.9914 31.2055C21.9914 31.4979 22.1076 31.7783 22.3143 31.9851C22.5211 32.1919 22.8015 32.308 23.094 32.308H25.2991V33.4106C25.2991 33.6056 25.3766 33.7925 25.5144 33.9304C25.6523 34.0682 25.8392 34.1457 26.0342 34.1457C26.2291 34.1457 26.4161 34.0682 26.5539 33.9304C26.6918 33.7925 26.7692 33.6056 26.7692 33.4106V32.308H27.5043C29.7344 32.308 31.547 30.4954 31.547 28.2653C31.547 26.0351 29.7344 24.2225 27.5043 24.2225ZM25.2991 24.2225H24.5641C23.5512 24.2225 22.7264 23.3978 22.7264 22.3849C22.7264 21.372 23.5512 20.5472 24.5641 20.5472H25.2991V24.2225ZM27.5043 30.1029H26.7692V26.4276H27.5043C28.5172 26.4276 29.3419 27.2524 29.3419 28.2653C29.3419 29.2782 28.5172 30.1029 27.5043 30.1029Z" fill="white"/>
</g>
<defs>
<clipPath id="clip0_227_3652">
<rect width="49.95" height="49.95" fill="white" transform="translate(0.69165 0.333374)"/>
</clipPath>
</defs>
</svg>
