<svg width="50" height="50" viewBox="0 0 50 50" fill="none" xmlns="http://www.w3.org/2000/svg">
<g clip-path="url(#clip0_227_3493)">
<path d="M25 49.9545C38.7945 49.9545 49.9772 38.7718 49.9772 24.9773C49.9772 11.1827 38.7945 0 25 0C11.2054 0 0.0227051 11.1827 0.0227051 24.9773C0.0227051 38.7718 11.2054 49.9545 25 49.9545Z" fill="#2A4887"/>
<path d="M31.5623 24.9772V16.2352C31.5631 16.0914 31.5355 15.9488 31.4812 15.8157C31.4268 15.6825 31.3467 15.5615 31.2454 15.4593L25.7816 9.99557C25.6795 9.89429 25.5584 9.81416 25.4253 9.75978C25.2921 9.7054 25.1496 9.67784 25.0057 9.67867H11.8927C11.6029 9.67867 11.3249 9.7938 11.12 9.99873C10.9151 10.2037 10.7999 10.4816 10.7999 10.7714V34.812C10.7999 35.1019 10.9151 35.3798 11.12 35.5847C11.3249 35.7897 11.6029 35.9048 11.8927 35.9048H24.6779C25.2651 37.1426 26.1739 38.2001 27.3095 38.9666C28.445 39.7331 29.7656 40.1805 31.1332 40.2622C32.5008 40.3438 33.8652 40.0567 35.0839 39.4307C36.3026 38.8048 37.3308 37.863 38.0611 36.7038C38.7914 35.5447 39.1969 34.2106 39.2354 32.8411C39.2738 31.4716 38.9437 30.117 38.2796 28.9186C37.6155 27.7203 36.6418 26.7223 35.4601 26.029C34.2785 25.3357 32.9323 24.9724 31.5623 24.9772ZM12.9854 11.8642H24.5249L29.3768 16.6942V25.2941C27.7978 25.7649 26.4131 26.7329 25.4286 28.054C24.4441 29.3752 23.9126 30.9789 23.913 32.6265C23.9145 32.9925 23.9437 33.3578 24.0004 33.7193H12.9854V11.8642ZM31.5623 38.0903C30.4278 38.0895 29.3216 37.7356 28.3974 37.0777C27.4731 36.4197 26.7766 35.4904 26.4045 34.4187C26.3229 34.1904 26.2571 33.9567 26.2078 33.7193C26.1306 33.3603 26.0939 32.9937 26.0985 32.6265C26.0985 31.5459 26.4189 30.4895 27.0193 29.591C27.6197 28.6925 28.473 27.9922 29.4714 27.5787C30.4698 27.1651 31.5683 27.0569 32.6282 27.2677C33.6881 27.4786 34.6616 27.9989 35.4258 28.7631C36.1899 29.5272 36.7103 30.5007 36.9211 31.5606C37.1319 32.6205 37.0237 33.7191 36.6102 34.7174C36.1966 35.7158 35.4963 36.5691 34.5978 37.1695C33.6993 37.7699 32.6429 38.0903 31.5623 38.0903ZM34.8405 32.6265C34.8405 32.9164 34.7254 33.1943 34.5205 33.3992C34.3156 33.6042 34.0376 33.7193 33.7478 33.7193H32.655V34.812C32.655 35.1019 32.5399 35.3798 32.335 35.5847C32.13 35.7897 31.8521 35.9048 31.5623 35.9048C31.2725 35.9048 30.9945 35.7897 30.7896 35.5847C30.5847 35.3798 30.4695 35.1019 30.4695 34.812V33.7193H29.3768C29.087 33.7193 28.809 33.6042 28.6041 33.3992C28.3991 33.1943 28.284 32.9164 28.284 32.6265C28.284 32.3367 28.3991 32.0588 28.6041 31.8538C28.809 31.6489 29.087 31.5338 29.3768 31.5338H30.4695V30.441C30.4695 30.1512 30.5847 29.8733 30.7896 29.6683C30.9945 29.4634 31.2725 29.3483 31.5623 29.3483C31.8521 29.3483 32.13 29.4634 32.335 29.6683C32.5399 29.8733 32.655 30.1512 32.655 30.441V31.5338H33.7478C34.0376 31.5338 34.3156 31.6489 34.5205 31.8538C34.7254 32.0588 34.8405 32.3367 34.8405 32.6265ZM15.1709 16.2352C15.1709 15.9454 15.2861 15.6674 15.491 15.4625C15.6959 15.2576 15.9739 15.1424 16.2637 15.1424H19.542C19.8318 15.1424 20.1097 15.2576 20.3147 15.4625C20.5196 15.6674 20.6347 15.9454 20.6347 16.2352C20.6347 16.525 20.5196 16.803 20.3147 17.0079C20.1097 17.2128 19.8318 17.328 19.542 17.328H16.2637C15.9739 17.328 15.6959 17.2128 15.491 17.0079C15.2861 16.803 15.1709 16.525 15.1709 16.2352ZM15.1709 20.6062C15.1709 20.3164 15.2861 20.0385 15.491 19.8335C15.6959 19.6286 15.9739 19.5135 16.2637 19.5135H26.0985C26.3883 19.5135 26.6663 19.6286 26.8712 19.8335C27.0761 20.0385 27.1913 20.3164 27.1913 20.6062C27.1913 20.896 27.0761 21.174 26.8712 21.3789C26.6663 21.5839 26.3883 21.699 26.0985 21.699H16.2637C15.9739 21.699 15.6959 21.5839 15.491 21.3789C15.2861 21.174 15.1709 20.896 15.1709 20.6062ZM26.0985 26.07H16.2637C15.9739 26.07 15.6959 25.9549 15.491 25.7499C15.2861 25.545 15.1709 25.2671 15.1709 24.9772C15.1709 24.6874 15.2861 24.4095 15.491 24.2046C15.6959 23.9996 15.9739 23.8845 16.2637 23.8845H26.0985C26.3883 23.8845 26.6663 23.9996 26.8712 24.2046C27.0761 24.4095 27.1913 24.6874 27.1913 24.9772C27.1913 25.2671 27.0761 25.545 26.8712 25.7499C26.6663 25.9549 26.3883 26.07 26.0985 26.07ZM25.0057 16.2352C25.0057 16.0191 25.0698 15.8078 25.1899 15.6281C25.31 15.4484 25.4807 15.3083 25.6803 15.2256C25.88 15.1429 26.0997 15.1213 26.3117 15.1634C26.5237 15.2056 26.7184 15.3097 26.8712 15.4625C27.024 15.6153 27.1281 15.81 27.1703 16.022C27.2124 16.234 27.1908 16.4537 27.1081 16.6534C27.0254 16.8531 26.8853 17.0237 26.7056 17.1438C26.5259 17.2639 26.3146 17.328 26.0985 17.328C25.8087 17.328 25.5307 17.2128 25.3258 17.0079C25.1209 16.803 25.0057 16.525 25.0057 16.2352ZM21.7275 16.2352C21.7275 16.0191 21.7916 15.8078 21.9116 15.6281C22.0317 15.4484 22.2024 15.3083 22.4021 15.2256C22.6017 15.1429 22.8215 15.1213 23.0334 15.1634C23.2454 15.2056 23.4401 15.3097 23.5929 15.4625C23.7458 15.6153 23.8498 15.81 23.892 16.022C23.9342 16.234 23.9125 16.4537 23.8298 16.6534C23.7471 16.8531 23.607 17.0237 23.4273 17.1438C23.2476 17.2639 23.0364 17.328 22.8202 17.328C22.5304 17.328 22.2525 17.2128 22.0475 17.0079C21.8426 16.803 21.7275 16.525 21.7275 16.2352Z" fill="white"/>
</g>
<defs>
<clipPath id="clip0_227_3493">
<rect width="49.9545" height="49.9545" fill="white" transform="translate(0.0227051)"/>
</clipPath>
</defs>
</svg>
