<svg width="51" height="51" viewBox="0 0 51 51" fill="none" xmlns="http://www.w3.org/2000/svg">
<g clip-path="url(#clip0_227_3640)">
<path d="M25.3334 50.2834C39.1267 50.2834 50.3084 39.1017 50.3084 25.3084C50.3084 11.5151 39.1267 0.333374 25.3334 0.333374C11.5401 0.333374 0.358398 11.5151 0.358398 25.3084C0.358398 39.1017 11.5401 50.2834 25.3334 50.2834Z" fill="#2A4887"/>
<path d="M11.8404 10.3268C11.6422 10.326 11.4457 10.3645 11.2624 10.4401C11.0791 10.5156 10.9126 10.6266 10.7724 10.7668C10.6322 10.907 10.5212 11.0735 10.4456 11.2568C10.3701 11.4401 10.3316 11.6366 10.3324 11.8348V17.8386C10.3324 18.2371 10.4907 18.6192 10.7724 18.9009C11.0542 19.1827 11.4363 19.341 11.8347 19.341C12.2332 19.341 12.6153 19.1827 12.8971 18.9009C13.1788 18.6192 13.3371 18.2371 13.3371 17.8386V13.3315H17.8272C18.2256 13.3315 18.6078 13.1732 18.8895 12.8915C19.1713 12.6097 19.3295 12.2276 19.3295 11.8292C19.3295 11.4307 19.1713 11.0486 18.8895 10.7668C18.6078 10.4851 18.2256 10.3268 17.8272 10.3268H11.8404ZM32.8281 10.3268C32.6308 10.3268 32.4355 10.3657 32.2532 10.4412C32.0709 10.5167 31.9053 10.6273 31.7658 10.7668C31.6263 10.9063 31.5156 11.072 31.4401 11.2542C31.3646 11.4365 31.3258 11.6319 31.3258 11.8292C31.3258 12.0264 31.3646 12.2218 31.4401 12.4041C31.5156 12.5864 31.6263 12.752 31.7658 12.8915C31.9053 13.031 32.0709 13.1417 32.2532 13.2172C32.4355 13.2927 32.6308 13.3315 32.8281 13.3315H37.3409V17.8386C37.3185 18.0482 37.3404 18.2601 37.4053 18.4606C37.4702 18.6612 37.5765 18.8458 37.7174 19.0025C37.8583 19.1593 38.0306 19.2846 38.2231 19.3704C38.4156 19.4562 38.624 19.5006 38.8347 19.5006C39.0455 19.5006 39.2539 19.4562 39.4464 19.3704C39.6389 19.2846 39.8112 19.1593 39.9521 19.0025C40.093 18.8458 40.1993 18.6612 40.2642 18.4606C40.329 18.2601 40.351 18.0482 40.3286 17.8386V11.8348C40.3293 11.6375 40.2912 11.442 40.2164 11.2595C40.1416 11.0769 40.0316 10.9109 39.8926 10.7708C39.7536 10.6308 39.5884 10.5195 39.4064 10.4433C39.2244 10.3671 39.0292 10.3275 38.8319 10.3268H32.8281ZM25.339 16.3306C20.384 16.3306 16.3305 20.3784 16.3305 25.3334C16.3305 30.2884 20.384 34.3362 25.339 34.3362C30.2883 34.3362 34.3418 30.2884 34.3418 25.3334C34.3418 20.3784 30.2883 16.3306 25.339 16.3306ZM25.339 19.3353C28.6669 19.3353 31.3371 21.9999 31.3371 25.3334C31.3371 28.667 28.6725 31.3315 25.339 31.3315C22.0054 31.3315 19.3295 28.667 19.3295 25.3334C19.3295 21.9999 22.0054 19.3296 25.339 19.3296V19.3353ZM11.8121 31.3145C11.4146 31.319 11.0351 31.4808 10.7567 31.7645C10.4783 32.0482 10.3237 32.4307 10.3267 32.8282V38.832C10.3267 39.0298 10.3657 39.2256 10.4416 39.4082C10.5175 39.5909 10.6286 39.7568 10.7687 39.8963C10.9088 40.0359 11.0751 40.1465 11.2581 40.2216C11.441 40.2968 11.637 40.3351 11.8347 40.3344H17.8215C18.0262 40.3469 18.2313 40.3175 18.4241 40.2478C18.617 40.1782 18.7936 40.0698 18.943 39.9293C19.0923 39.7888 19.2114 39.6192 19.2928 39.431C19.3741 39.2428 19.4161 39.0399 19.4161 38.8348C19.4161 38.6298 19.3741 38.4269 19.2928 38.2386C19.2114 38.0504 19.0923 37.8808 18.943 37.7404C18.7936 37.5999 18.617 37.4915 18.4241 37.4218C18.2313 37.3522 18.0262 37.3227 17.8215 37.3353H13.3258V32.8282C13.3273 32.629 13.2891 32.4315 13.2136 32.2472C13.1381 32.0628 13.0266 31.8954 12.8858 31.7545C12.7449 31.6136 12.5774 31.5022 12.3931 31.4267C12.2088 31.3511 12.0113 31.313 11.8121 31.3145ZM38.8036 31.3145C38.4081 31.322 38.0315 31.4851 37.7555 31.7685C37.4795 32.0519 37.3265 32.4327 37.3295 32.8282V37.3353H32.8225C32.424 37.3353 32.0419 37.4936 31.7601 37.7753C31.4784 38.0571 31.3201 38.4392 31.3201 38.8377C31.3201 39.2361 31.4784 39.6182 31.7601 39.9C32.0419 40.1817 32.424 40.34 32.8225 40.34H38.8319C39.2294 40.337 39.6094 40.1766 39.8889 39.894C40.1684 39.6113 40.3244 39.2295 40.3229 38.832V32.8225C40.3237 32.6233 40.2848 32.426 40.2086 32.2419C40.1324 32.0579 40.0203 31.8908 39.8789 31.7505C39.7375 31.6101 39.5696 31.4993 39.385 31.4245C39.2004 31.3496 39.0028 31.3123 38.8036 31.3145Z" fill="white"/>
</g>
<defs>
<clipPath id="clip0_227_3640">
<rect width="49.95" height="49.95" fill="white" transform="translate(0.358398 0.333374)"/>
</clipPath>
</defs>
</svg>
