<svg width="51" height="50" viewBox="0 0 51 50" fill="none" xmlns="http://www.w3.org/2000/svg">
<g clip-path="url(#clip0_227_3548)">
<path d="M25.3334 49.95C39.1267 49.95 50.3084 38.7683 50.3084 24.975C50.3084 11.1817 39.1267 0 25.3334 0C11.5401 0 0.358398 11.1817 0.358398 24.975C0.358398 38.7683 11.5401 49.95 25.3334 49.95Z" fill="#2A4887"/>
<g clip-path="url(#clip1_227_3548)">
<path d="M20.3105 30.5291H19.2324C19.0894 30.5291 18.9523 30.5859 18.8512 30.687C18.7502 30.7881 18.6934 30.9252 18.6934 31.0681C18.6934 31.2111 18.7502 31.3482 18.8512 31.4493C18.9523 31.5504 19.0894 31.6072 19.2324 31.6072H20.3105C20.4534 31.6072 20.5905 31.5504 20.6916 31.4493C20.7927 31.3482 20.8495 31.2111 20.8495 31.0681C20.8495 30.9252 20.7927 30.7881 20.6916 30.687C20.5905 30.5859 20.4534 30.5291 20.3105 30.5291ZM35.4035 30.5291H22.4666C22.3237 30.5291 22.1865 30.5859 22.0855 30.687C21.9844 30.7881 21.9276 30.9252 21.9276 31.0681C21.9276 31.2111 21.9844 31.3482 22.0855 31.4493C22.1865 31.5504 22.3237 31.6072 22.4666 31.6072H35.4035C35.5465 31.6072 35.6836 31.5504 35.7847 31.4493C35.8857 31.3482 35.9425 31.2111 35.9425 31.0681C35.9425 30.9252 35.8857 30.7881 35.7847 30.687C35.6836 30.5859 35.5465 30.5291 35.4035 30.5291ZM20.3105 27.2949H19.2324C19.0894 27.2949 18.9523 27.3517 18.8512 27.4528C18.7502 27.5539 18.6934 27.691 18.6934 27.8339C18.6934 27.9769 18.7502 28.114 18.8512 28.2151C18.9523 28.3162 19.0894 28.373 19.2324 28.373H20.3105C20.4534 28.373 20.5905 28.3162 20.6916 28.2151C20.7927 28.114 20.8495 27.9769 20.8495 27.8339C20.8495 27.691 20.7927 27.5539 20.6916 27.4528C20.5905 27.3517 20.4534 27.2949 20.3105 27.2949ZM35.4035 27.2949H22.4666C22.3237 27.2949 22.1865 27.3517 22.0855 27.4528C21.9844 27.5539 21.9276 27.691 21.9276 27.8339C21.9276 27.9769 21.9844 28.114 22.0855 28.2151C22.1865 28.3162 22.3237 28.373 22.4666 28.373H35.4035C35.5465 28.373 35.6836 28.3162 35.7847 28.2151C35.8857 28.114 35.9425 27.9769 35.9425 27.8339C35.9425 27.691 35.8857 27.5539 35.7847 27.4528C35.6836 27.3517 35.5465 27.2949 35.4035 27.2949ZM20.3105 24.0607H19.2324C19.0894 24.0607 18.9523 24.1175 18.8512 24.2185C18.7502 24.3196 18.6934 24.4567 18.6934 24.5997C18.6934 24.7427 18.7502 24.8798 18.8512 24.9809C18.9523 25.0819 19.0894 25.1387 19.2324 25.1387H20.3105C20.4534 25.1387 20.5905 25.0819 20.6916 24.9809C20.7927 24.8798 20.8495 24.7427 20.8495 24.5997C20.8495 24.4567 20.7927 24.3196 20.6916 24.2185C20.5905 24.1175 20.4534 24.0607 20.3105 24.0607ZM35.4035 24.0607H22.4666C22.3237 24.0607 22.1865 24.1175 22.0855 24.2185C21.9844 24.3196 21.9276 24.4567 21.9276 24.5997C21.9276 24.7427 21.9844 24.8798 22.0855 24.9809C22.1865 25.0819 22.3237 25.1387 22.4666 25.1387H35.4035C35.5465 25.1387 35.6836 25.0819 35.7847 24.9809C35.8857 24.8798 35.9425 24.7427 35.9425 24.5997C35.9425 24.4567 35.8857 24.3196 35.7847 24.2185C35.6836 24.1175 35.5465 24.0607 35.4035 24.0607ZM20.3105 20.8264H19.2324C19.0894 20.8264 18.9523 20.8832 18.8512 20.9843C18.7502 21.0854 18.6934 21.2225 18.6934 21.3655C18.6934 21.5084 18.7502 21.6455 18.8512 21.7466C18.9523 21.8477 19.0894 21.9045 19.2324 21.9045H20.3105C20.4534 21.9045 20.5905 21.8477 20.6916 21.7466C20.7927 21.6455 20.8495 21.5084 20.8495 21.3655C20.8495 21.2225 20.7927 21.0854 20.6916 20.9843C20.5905 20.8832 20.4534 20.8264 20.3105 20.8264ZM35.4035 20.8264H22.4666C22.3237 20.8264 22.1865 20.8832 22.0855 20.9843C21.9844 21.0854 21.9276 21.2225 21.9276 21.3655C21.9276 21.5084 21.9844 21.6455 22.0855 21.7466C22.1865 21.8477 22.3237 21.9045 22.4666 21.9045H35.4035C35.5465 21.9045 35.6836 21.8477 35.7847 21.7466C35.8857 21.6455 35.9425 21.5084 35.9425 21.3655C35.9425 21.2225 35.8857 21.0854 35.7847 20.9843C35.6836 20.8832 35.5465 20.8264 35.4035 20.8264ZM20.3105 17.5922H19.2324C19.0894 17.5922 18.9523 17.649 18.8512 17.7501C18.7502 17.8512 18.6934 17.9883 18.6934 18.1313C18.6934 18.2742 18.7502 18.4113 18.8512 18.5124C18.9523 18.6135 19.0894 18.6703 19.2324 18.6703H20.3105C20.4534 18.6703 20.5905 18.6135 20.6916 18.5124C20.7927 18.4113 20.8495 18.2742 20.8495 18.1313C20.8495 17.9883 20.7927 17.8512 20.6916 17.7501C20.5905 17.649 20.4534 17.5922 20.3105 17.5922ZM35.4035 17.5922H22.4666C22.3237 17.5922 22.1865 17.649 22.0855 17.7501C21.9844 17.8512 21.9276 17.9883 21.9276 18.1313C21.9276 18.2742 21.9844 18.4113 22.0855 18.5124C22.1865 18.6135 22.3237 18.6703 22.4666 18.6703H35.4035C35.5465 18.6703 35.6836 18.6135 35.7847 18.5124C35.8857 18.4113 35.9425 18.2742 35.9425 18.1313C35.9425 17.9883 35.8857 17.8512 35.7847 17.7501C35.6836 17.649 35.5465 17.5922 35.4035 17.5922Z" fill="white"/>
<path d="M39.1698 15.4021C39.1671 15.3549 39.1579 15.3083 39.1423 15.2636C39.1364 15.2463 39.1321 15.2296 39.1245 15.2129C39.0983 15.1543 39.0618 15.1008 39.0167 15.055L31.4702 7.50846C31.4244 7.4634 31.3709 7.42689 31.3123 7.40066C31.2956 7.39311 31.2789 7.3888 31.2621 7.38287C31.2171 7.36737 31.1701 7.35794 31.1225 7.35484C31.1134 7.35645 31.1031 7.35052 31.0913 7.35052H15.9982C15.8553 7.35052 15.7182 7.40732 15.6171 7.50841C15.516 7.60949 15.4592 7.7466 15.4592 7.88956V9.50667H12.764C12.6211 9.50667 12.4839 9.56346 12.3829 9.66455C12.2818 9.76564 12.225 9.90275 12.225 10.0457V39.1537C12.225 39.2967 12.2818 39.4338 12.3829 39.5349C12.4839 39.6359 12.6211 39.6927 12.764 39.6927H35.4036C35.5465 39.6927 35.6836 39.6359 35.7847 39.5349C35.8858 39.4338 35.9426 39.2967 35.9426 39.1537V36.4585H38.6378C38.7807 36.4585 38.9179 36.4017 39.0189 36.3006C39.12 36.1995 39.1768 36.0624 39.1768 35.9195V15.4361C39.1768 15.4242 39.1709 15.414 39.1698 15.4021ZM31.6303 9.1908L37.3365 14.897H31.6303V9.1908ZM34.8645 38.6147H13.303V10.5847H15.4592V35.9195C15.4592 36.0624 15.516 36.1995 15.6171 36.3006C15.7182 36.4017 15.8553 36.4585 15.9982 36.4585H34.8645V38.6147ZM38.0987 35.3804H16.5373V8.4286H30.5522V15.4361C30.5522 15.579 30.609 15.7161 30.7101 15.8172C30.8112 15.9183 30.9483 15.9751 31.0913 15.9751H38.0987V35.3804Z" fill="white"/>
<path d="M22.4666 12.2018H19.2324C19.0894 12.2018 18.9523 12.2586 18.8512 12.3597C18.7502 12.4608 18.6934 12.5979 18.6934 12.7409V15.9751C18.6934 16.1181 18.7502 16.2552 18.8512 16.3563C18.9523 16.4573 19.0894 16.5141 19.2324 16.5141H22.4666C22.6096 16.5141 22.7467 16.4573 22.8478 16.3563C22.9489 16.2552 23.0057 16.1181 23.0057 15.9751V12.7409C23.0057 12.5979 22.9489 12.4608 22.8478 12.3597C22.7467 12.2586 22.6096 12.2018 22.4666 12.2018ZM21.9276 15.4361H19.7714V13.2799H21.9276V15.4361Z" fill="white"/>
</g>
</g>
<defs>
<clipPath id="clip0_227_3548">
<rect width="49.95" height="49.95" fill="white" transform="translate(0.358398)"/>
</clipPath>
<clipPath id="clip1_227_3548">
<rect width="32.3422" height="32.3422" fill="white" transform="translate(9.52979 7.35052)"/>
</clipPath>
</defs>
</svg>
