<svg width="50" height="50" viewBox="0 0 50 50" fill="none" xmlns="http://www.w3.org/2000/svg">
<g clip-path="url(#clip0_227_3583)">
<path d="M24.9999 49.95C38.7932 49.95 49.9749 38.7683 49.9749 24.975C49.9749 11.1817 38.7932 0 24.9999 0C11.2066 0 0.0249023 11.1817 0.0249023 24.975C0.0249023 38.7683 11.2066 49.95 24.9999 49.95Z" fill="#2A4887"/>
<path d="M38.2833 36.8575H37.2333V20.0564C37.2333 19.7779 37.1226 19.5108 36.9257 19.3139C36.7288 19.1169 36.4617 19.0063 36.1832 19.0063H29.8828V10.6057C29.8828 10.3272 29.7721 10.0601 29.5752 9.86322C29.3783 9.6663 29.1112 9.55566 28.8327 9.55566H13.0816C12.8031 9.55566 12.536 9.6663 12.3391 9.86322C12.1422 10.0601 12.0315 10.3272 12.0315 10.6057V36.8575H10.9815C10.703 36.8575 10.4359 36.9682 10.239 37.1651C10.042 37.362 9.9314 37.6291 9.9314 37.9076C9.9314 38.1861 10.042 38.4532 10.239 38.6501C10.4359 38.847 10.703 38.9577 10.9815 38.9577H38.2833C38.5618 38.9577 38.8289 38.847 39.0258 38.6501C39.2228 38.4532 39.3334 38.1861 39.3334 37.9076C39.3334 37.6291 39.2228 37.362 39.0258 37.1651C38.8289 36.9682 38.5618 36.8575 38.2833 36.8575ZM35.1331 21.1065V36.8575H29.8828V21.1065H35.1331ZM14.1317 11.6558H27.7826V36.8575H25.6825V30.5571C25.6825 30.2786 25.5718 30.0115 25.3749 29.8146C25.178 29.6177 24.9109 29.507 24.6324 29.507H17.2819C17.0034 29.507 16.7363 29.6177 16.5394 29.8146C16.3425 30.0115 16.2318 30.2786 16.2318 30.5571V36.8575H14.1317V11.6558ZM23.5823 36.8575H18.332V31.6072H23.5823V36.8575Z" fill="white"/>
<path d="M16.2319 12.7059H19.3821V14.8061H16.2319V12.7059ZM22.5324 12.7059H25.6826V14.8061H22.5324V12.7059ZM16.2319 16.9062H19.3821V19.0064H16.2319V16.9062ZM22.5324 16.9062H25.6826V19.0064H22.5324V16.9062ZM16.2319 21.1065H19.3821V23.2067H16.2319V21.1065ZM22.5324 21.1065H25.6826V23.2067H22.5324V21.1065ZM16.2319 25.3068H19.3821V27.4069H16.2319V25.3068ZM22.5324 25.3068H25.6826V27.4069H22.5324V25.3068ZM30.9329 23.2067H34.0832V25.3068H30.9329V23.2067ZM30.9329 27.4069H34.0832V29.5071H30.9329V27.4069ZM30.9329 31.6072H34.0832V33.7074H30.9329V31.6072Z" fill="white"/>
</g>
<defs>
<clipPath id="clip0_227_3583">
<rect width="49.95" height="49.95" fill="white" transform="translate(0.0249023)"/>
</clipPath>
</defs>
</svg>
