<svg width="51" height="51" viewBox="0 0 51 51" fill="none" xmlns="http://www.w3.org/2000/svg">
<g clip-path="url(#clip0_227_3681)">
<path d="M25.3332 50.2834C39.1265 50.2834 50.3082 39.1017 50.3082 25.3084C50.3082 11.5151 39.1265 0.333374 25.3332 0.333374C11.5398 0.333374 0.358154 11.5151 0.358154 25.3084C0.358154 39.1017 11.5398 50.2834 25.3332 50.2834Z" fill="#2A4887"/>
<g clip-path="url(#clip1_227_3681)">
<path d="M15.6914 33.5255L15.6914 37.1433L19.3092 37.1433L19.3092 40.7611L39.3279 40.7611L39.3279 17.1247L35.7101 17.1247L35.7101 13.5068L32.0922 13.5068L32.0922 9.889L12.0736 9.889L12.0736 33.5255L15.6914 33.5255ZM37.519 18.9336L37.519 38.9522L21.1182 38.9522L21.1182 26.1692L28.3538 26.1692L28.3538 18.9336L37.519 18.9336ZM22.3972 24.3603L26.5449 20.2126L26.5449 24.3603L22.3972 24.3603ZM33.9011 15.3157L33.9011 17.1247L27.0747 17.1247L19.3092 24.8901L19.3092 35.3344L17.5003 35.3344L17.5003 15.3157L33.9011 15.3157ZM13.8825 11.6979L30.2833 11.6979L30.2833 13.5068L15.6914 13.5068L15.6914 31.7165L13.8825 31.7165L13.8825 11.6979Z" fill="white"/>
</g>
</g>
<defs>
<clipPath id="clip0_227_3681">
<rect width="49.95" height="49.95" fill="white" transform="translate(0.358154 0.333374)"/>
</clipPath>
<clipPath id="clip1_227_3681">
<rect width="30.8721" height="30.8721" fill="white" transform="translate(41.1367 40.7611) rotate(-180)"/>
</clipPath>
</defs>
</svg>
