<svg width="50" height="51" viewBox="0 0 50 51" fill="none" xmlns="http://www.w3.org/2000/svg">
<g clip-path="url(#clip0_227_3752)">
<path d="M24.9999 50.6166C38.7932 50.6166 49.9749 39.4349 49.9749 25.6416C49.9749 11.8483 38.7932 0.666626 24.9999 0.666626C11.2066 0.666626 0.0249023 11.8483 0.0249023 25.6416C0.0249023 39.4349 11.2066 50.6166 24.9999 50.6166Z" fill="#2A4887"/>
<g clip-path="url(#clip1_227_3752)">
<path d="M10.9771 14.273H16.3322L17.6854 9.24659C17.8014 8.82128 18.2267 8.5893 18.6327 8.68596C25.167 10.4452 31.6819 12.1851 38.2162 13.9443C38.6221 14.0603 38.8735 14.4856 38.7575 14.8916V14.9302L31.7592 41.048C31.6819 41.4153 31.3339 41.7053 30.9279 41.6666H10.9771C10.5518 41.6666 10.2039 41.3186 10.2039 40.8933V15.0462C10.2039 14.6016 10.5518 14.273 10.9771 14.273ZM14.7276 35.403C14.3023 35.403 13.9543 35.751 13.9543 36.1763C13.9543 36.6016 14.3023 36.9496 14.7276 36.9496H27.2355C27.6608 36.9496 28.0088 36.6016 28.0088 36.1763C28.0088 35.751 27.6608 35.403 27.2355 35.403H14.7276ZM14.7276 31.3046C14.3023 31.3046 13.9543 31.6332 13.9543 32.0779C13.9543 32.5032 14.3023 32.8512 14.7276 32.8512H27.2355C27.6608 32.8512 28.0088 32.5032 28.0088 32.0779C28.0088 31.6332 27.6608 31.3046 27.2355 31.3046H14.7276ZM14.7276 27.1868C14.3023 27.1868 13.9543 27.5348 13.9543 27.9601C13.9543 28.3854 14.3023 28.7334 14.7276 28.7334H27.2355C27.6608 28.7334 28.0088 28.3854 28.0088 27.9601C28.0088 27.5348 27.6608 27.1868 27.2355 27.1868H14.7276ZM14.7276 23.0884C14.3023 23.0884 13.9543 23.4364 13.9543 23.8617C13.9543 24.287 14.3023 24.635 14.7276 24.635H27.2355C27.6608 24.635 28.0088 24.287 28.0088 23.8617C28.0088 23.4364 27.6608 23.0884 27.2355 23.0884H14.7276ZM14.7276 18.9707C14.3023 18.9707 13.9543 19.3186 13.9543 19.744C13.9543 20.1693 14.3023 20.5172 14.7276 20.5172H27.2355C27.6608 20.5172 28.0088 20.1693 28.0088 19.744C28.0088 19.3186 27.6608 18.9707 27.2355 18.9707H14.7276ZM17.9367 14.273H31.0053C31.4306 14.273 31.7785 14.6016 31.7785 15.0462V35.0164L37.0756 15.2396L18.9807 10.3872L17.9367 14.273ZM30.232 15.8195H11.7504V40.1201H30.232V15.8195Z" fill="white"/>
</g>
</g>
<defs>
<clipPath id="clip0_227_3752">
<rect width="49.95" height="49.95" fill="white" transform="translate(0.0249023 0.666626)"/>
</clipPath>
<clipPath id="clip1_227_3752">
<rect width="33" height="33" fill="white" transform="translate(8 8.66663)"/>
</clipPath>
</defs>
</svg>
