<svg width="51" height="51" viewBox="0 0 51 51" fill="none" xmlns="http://www.w3.org/2000/svg">
<g clip-path="url(#clip0_227_3778)">
<path d="M25.6664 50.6166C39.4597 50.6166 50.6414 39.4349 50.6414 25.6416C50.6414 11.8483 39.4597 0.666626 25.6664 0.666626C11.8731 0.666626 0.691406 11.8483 0.691406 25.6416C0.691406 39.4349 11.8731 50.6166 25.6664 50.6166Z" fill="#2A4887"/>
</g>
<path d="M27.9847 18.9202C27.0277 18.9202 27.0277 17.4174 27.9847 17.4174H34.7387C35.6956 17.4174 35.6956 18.9202 34.7387 18.9202H27.9847ZM16.1211 14.1112C15.9351 14.0985 15.7609 14.0156 15.6336 13.8793C15.5064 13.743 15.4356 13.5636 15.4356 13.3771C15.4356 13.1907 15.5064 13.0112 15.6336 12.8749C15.7609 12.7386 15.9351 12.6557 16.1211 12.643H20.6123C20.7129 12.6361 20.8139 12.6499 20.909 12.6837C21.004 12.7175 21.0911 12.7704 21.1648 12.8393C21.2386 12.9081 21.2974 12.9914 21.3376 13.0839C21.3778 13.1764 21.3985 13.2762 21.3985 13.3771C21.3985 13.478 21.3778 13.5778 21.3376 13.6703C21.2974 13.7628 21.2386 13.8461 21.1648 13.915C21.0911 13.9838 21.004 14.0368 20.909 14.0705C20.8139 14.1043 20.7129 14.1182 20.6123 14.1112H16.1211ZM26.589 31.5853H34.3725C34.8102 31.588 35.2294 31.7626 35.5396 32.0715C35.8498 32.3805 36.0262 32.7989 36.0307 33.2367V35.5513C36.0244 35.9844 35.8467 36.3974 35.5365 36.6998C35.2264 37.0021 34.8091 37.1693 34.3759 37.1647H26.589C26.1558 37.1693 25.7385 37.0021 25.4284 36.6998C25.1182 36.3974 24.9405 35.9844 24.9341 35.5513V33.2367C24.9337 33.0194 24.9762 32.8042 25.0592 32.6034C25.1423 32.4026 25.2642 32.2202 25.418 32.0667C25.5718 31.9132 25.7544 31.7917 25.9554 31.7091C26.1564 31.6265 26.3717 31.5844 26.589 31.5853ZM34.3725 33.0916H26.589C26.5451 33.0866 26.501 33.0991 26.4662 33.1262C26.4313 33.1533 26.4084 33.1929 26.4024 33.2367V35.5513C26.4084 35.5951 26.4313 35.6347 26.4662 35.6618C26.501 35.6889 26.5451 35.7014 26.589 35.6964H34.3725C34.445 35.6964 34.5556 35.6239 34.5556 35.5513V33.2367C34.5504 33.1932 34.5282 33.1536 34.4939 33.1264C34.4596 33.0992 34.416 33.0867 34.3725 33.0916ZM13.3677 39.3308H37.4956C37.612 39.3386 37.7268 39.3007 37.8158 39.2253C37.9048 39.1498 37.9609 39.0427 37.9723 38.9266L39.7342 23.1419C39.743 23.0757 39.737 23.0083 39.7167 22.9446C39.6964 22.8809 39.6622 22.8226 39.6166 22.7737C39.571 22.7248 39.5152 22.6866 39.4531 22.6619C39.391 22.6371 39.3242 22.6265 39.2575 22.6306H28.7758C26.1329 22.6306 27.8223 26.8523 23.9392 26.8523H12.0825C12.015 26.8447 11.9466 26.853 11.8829 26.8766C11.8192 26.9002 11.7618 26.9383 11.7155 26.988C11.6692 27.0377 11.6351 27.0976 11.6161 27.1628C11.597 27.228 11.5935 27.2968 11.6058 27.3636L12.884 38.9266C12.8864 38.9853 12.901 39.0428 12.9268 39.0956C12.9526 39.1484 12.989 39.1952 13.0338 39.2332C13.0786 39.2712 13.1308 39.2995 13.1871 39.3163C13.2433 39.3331 13.3025 39.338 13.3608 39.3308H13.3677ZM37.4956 40.8371H13.3677C12.884 40.8323 12.4189 40.6503 12.0605 40.3256C11.702 40.0009 11.4751 39.556 11.4227 39.0752L10.1202 27.5467C10.0884 27.2743 10.1138 26.9983 10.1947 26.7363C10.2756 26.4743 10.4102 26.232 10.59 26.0249C10.7697 25.8178 10.9907 25.6505 11.2388 25.5336C11.4868 25.4167 11.7566 25.3528 12.0307 25.346C12.0702 25.3498 12.11 25.3448 12.1473 25.3313C12.1847 25.3179 12.2186 25.2964 12.2466 25.2683C12.2747 25.2403 12.2962 25.2064 12.3096 25.169C12.3231 25.1317 12.3281 25.0919 12.3243 25.0524V10.4803C12.3248 10.3826 12.3446 10.286 12.3826 10.196C12.4206 10.1061 12.4761 10.0245 12.5458 9.95608C12.6155 9.88766 12.698 9.83373 12.7887 9.79741C12.8794 9.76108 12.9764 9.74309 13.074 9.74446H34.2274C34.4219 9.74537 34.6082 9.8233 34.7455 9.9612C34.8827 10.0991 34.9598 10.2858 34.9598 10.4803V13.4514C34.9593 13.4901 34.9666 13.5285 34.9812 13.5643C34.9958 13.6001 35.0174 13.6327 35.0448 13.6601C35.0721 13.6874 35.1047 13.709 35.1405 13.7236C35.1763 13.7382 35.2147 13.7455 35.2534 13.745H36.3555C37.0296 13.756 37.6791 14.0001 38.1934 14.436C38.437 14.6602 38.6312 14.9326 38.7639 15.2359C38.8965 15.5393 38.9646 15.8669 38.9638 16.1979V20.8307C38.9634 20.8694 38.9706 20.9078 38.9852 20.9436C38.9998 20.9795 39.0214 21.012 39.0488 21.0394C39.0762 21.0667 39.1087 21.0884 39.1445 21.1029C39.1804 21.1175 39.2188 21.1248 39.2575 21.1244C39.5315 21.1275 39.802 21.1874 40.0518 21.3001C40.3016 21.4129 40.5254 21.5762 40.7091 21.7796C40.8927 21.9831 41.0323 22.2223 41.119 22.4823C41.2057 22.7424 41.2377 23.0175 41.2128 23.2905L39.4406 39.0752C39.3874 39.5557 39.1603 40.0002 38.802 40.3248C38.4437 40.6493 37.979 40.8316 37.4956 40.8371ZM14.1381 25.346H17.2232C17.2619 25.3465 17.3002 25.3392 17.3361 25.3246C17.3719 25.31 17.4045 25.2884 17.4318 25.2611C17.4592 25.2337 17.4808 25.2012 17.4954 25.1653C17.51 25.1295 17.5173 25.0911 17.5168 25.0524V20.354C17.5166 20.2437 17.5391 20.1346 17.5831 20.0335C17.6271 19.9324 17.6916 19.8416 17.7725 19.7666L23.687 13.9661C23.7558 13.9022 23.837 13.853 23.9255 13.8216C24.014 13.7901 24.108 13.777 24.2017 13.783H33.184C33.2684 13.7751 33.3463 13.7346 33.4011 13.67C33.456 13.6055 33.4835 13.5221 33.4777 13.4376V11.5444C33.4835 11.4599 33.456 11.3764 33.4011 11.3119C33.3463 11.2474 33.2684 11.2068 33.184 11.1989H14.1381C14.0465 11.1989 13.9586 11.2353 13.8938 11.3001C13.829 11.3649 13.7926 11.4527 13.7926 11.5444V25.0524C13.7931 25.0954 13.8028 25.1377 13.8211 25.1766C13.8394 25.2155 13.8658 25.25 13.8985 25.2779C13.9312 25.3057 13.9696 25.3262 14.0109 25.3379C14.0522 25.3497 14.0956 25.3525 14.1381 25.346ZM19.2787 25.346H23.9392C26.5095 25.346 24.8581 21.1244 28.7758 21.1244H37.2019C37.2406 21.1248 37.279 21.1175 37.3148 21.1029C37.3507 21.0884 37.3832 21.0667 37.4106 21.0394C37.4379 21.012 37.4596 20.9795 37.4741 20.9436C37.4887 20.9078 37.496 20.8694 37.4956 20.8307V16.2048C37.4937 16.0807 37.4667 15.9582 37.4163 15.8448C37.3658 15.7314 37.2929 15.6294 37.2019 15.545C36.9628 15.3511 36.6633 15.2472 36.3555 15.2513H25.1172C25.0777 15.2476 25.0379 15.2526 25.0006 15.266C24.9633 15.2795 24.9294 15.301 24.9013 15.329C24.8733 15.3571 24.8517 15.391 24.8383 15.4283C24.8249 15.4656 24.8198 15.5055 24.8236 15.545V18.7268C24.8227 19.3981 24.5556 20.0417 24.0809 20.5164C23.6062 20.9911 22.9626 21.2582 22.2913 21.2591H19.2787C19.2027 21.2647 19.1312 21.2974 19.0773 21.3513C19.0234 21.4052 18.9907 21.4767 18.9851 21.5527V25.042C18.9846 25.0807 18.9919 25.1191 19.0065 25.155C19.0211 25.1908 19.0427 25.2233 19.0701 25.2507C19.0974 25.2781 19.13 25.2997 19.1658 25.3143C19.2016 25.3289 19.24 25.3361 19.2787 25.3357V25.346ZM20.5639 19.8185H22.2913C22.5763 19.8121 22.8474 19.6942 23.0464 19.4901C23.2454 19.2859 23.3563 19.0118 23.3553 18.7268V17.0858C23.3542 17.0267 23.336 16.9691 23.303 16.9201C23.27 16.871 23.2236 16.8325 23.1693 16.8092C23.1149 16.7859 23.055 16.7787 22.9967 16.7885C22.9384 16.7984 22.8842 16.8248 22.8406 16.8647L20.3808 19.283C20.3392 19.3227 20.31 19.3736 20.2967 19.4295C20.2835 19.4854 20.2867 19.544 20.3061 19.5982C20.3255 19.6523 20.3602 19.6996 20.4059 19.7344C20.4517 19.7692 20.5066 19.79 20.5639 19.7943V19.8185Z" fill="white"/>
<defs>
<clipPath id="clip0_227_3778">
<rect width="49.95" height="49.95" fill="white" transform="translate(0.691406 0.666626)"/>
</clipPath>
</defs>
</svg>
