<svg width="51" height="50" viewBox="0 0 51 50" fill="none" xmlns="http://www.w3.org/2000/svg">
<g clip-path="url(#clip0_227_3563)">
<path d="M25.6667 49.95C39.46 49.95 50.6417 38.7683 50.6417 24.975C50.6417 11.1817 39.46 0 25.6667 0C11.8733 0 0.69165 11.1817 0.69165 24.975C0.69165 38.7683 11.8733 49.95 25.6667 49.95Z" fill="#2A4887"/>
<g clip-path="url(#clip1_227_3563)">
<path d="M36.4194 17.4983H30.0172C29.4194 17.4983 28.9348 17.0131 28.9348 16.4146V9.1693C28.9348 8.19727 30.184 7.7226 30.8279 8.45123L37.2301 15.6965C37.8336 16.3794 37.3234 17.4983 36.4194 17.4983ZM31.0996 15.3309H34.0167L31.0996 12.0298V15.3309ZM18.1162 13.7932H25.9295V15.9607H18.1162V13.7932ZM18.1162 18.8506H32.4404V21.0181H18.1162V18.8506ZM18.1162 23.908H25.3562V26.0755H18.1162V23.908ZM18.1162 28.9654H25.1394V31.1329H18.1162V28.9654ZM18.1162 34.0228H25.3562V36.1903H18.1162V34.0228ZM35.3371 19.16H37.5019V21.2217H35.3371V19.16Z" fill="white"/>
<path d="M35.4065 41.8979H15.0054C13.85 41.8979 12.9102 40.9579 12.9102 39.8027V10.1808C12.9102 9.02552 13.85 8.08557 15.0054 8.08557H27.1234V10.253H15.0749V39.7304H35.337V38.8765H37.5018V39.8027C37.5018 40.9579 36.5619 41.8979 35.4065 41.8979Z" fill="white"/>
<path d="M34.5218 37.6352C30.3439 37.6352 26.9451 34.2321 26.9451 30.0491C26.9451 25.8661 30.3439 22.463 34.5218 22.463C38.6996 22.463 42.0985 25.8661 42.0985 30.0491C42.0985 34.2321 38.6996 37.6352 34.5218 37.6352ZM34.5218 24.6305C31.5376 24.6305 29.1099 27.0613 29.1099 30.0491C29.1099 33.0369 31.5376 35.4677 34.5218 35.4677C37.5059 35.4677 39.9337 33.0369 39.9337 30.0491C39.9337 27.0613 37.5059 24.6305 34.5218 24.6305Z" fill="white"/>
<path d="M33.1157 32.8689L30.9648 31.3292L32.2238 29.5661L33.6016 30.5523L36.6274 27.3026L38.2108 28.7806L34.5369 32.7262C34.3252 32.9537 33.8002 33.204 33.1157 32.8689Z" fill="white"/>
</g>
<g clip-path="url(#clip2_227_3563)">
<path d="M26.0341 25.837H25.9606C25.9508 25.837 25.9415 25.8409 25.9346 25.8478C25.9277 25.8547 25.9238 25.864 25.9238 25.8738C25.9238 25.8835 25.9277 25.8929 25.9346 25.8998C25.9415 25.9066 25.9508 25.9105 25.9606 25.9105H26.0341C26.0438 25.9105 26.0532 25.9066 26.0601 25.8998C26.067 25.8929 26.0708 25.8835 26.0708 25.8738C26.0708 25.864 26.067 25.8547 26.0601 25.8478C26.0532 25.8409 26.0438 25.837 26.0341 25.837ZM27.0632 25.837H26.1811C26.1713 25.837 26.162 25.8409 26.1551 25.8478C26.1482 25.8547 26.1443 25.864 26.1443 25.8738C26.1443 25.8835 26.1482 25.8929 26.1551 25.8998C26.162 25.9066 26.1713 25.9105 26.1811 25.9105H27.0632C27.0729 25.9105 27.0823 25.9066 27.0891 25.8998C27.096 25.8929 27.0999 25.8835 27.0999 25.8738C27.0999 25.864 27.096 25.8547 27.0891 25.8478C27.0823 25.8409 27.0729 25.837 27.0632 25.837ZM26.0341 25.6165H25.9606C25.9508 25.6165 25.9415 25.6204 25.9346 25.6273C25.9277 25.6342 25.9238 25.6435 25.9238 25.6533C25.9238 25.663 25.9277 25.6723 25.9346 25.6792C25.9415 25.6861 25.9508 25.69 25.9606 25.69H26.0341C26.0438 25.69 26.0532 25.6861 26.0601 25.6792C26.067 25.6723 26.0708 25.663 26.0708 25.6533C26.0708 25.6435 26.067 25.6342 26.0601 25.6273C26.0532 25.6204 26.0438 25.6165 26.0341 25.6165ZM27.0632 25.6165H26.1811C26.1713 25.6165 26.162 25.6204 26.1551 25.6273C26.1482 25.6342 26.1443 25.6435 26.1443 25.6533C26.1443 25.663 26.1482 25.6723 26.1551 25.6792C26.162 25.6861 26.1713 25.69 26.1811 25.69H27.0632C27.0729 25.69 27.0823 25.6861 27.0891 25.6792C27.096 25.6723 27.0999 25.663 27.0999 25.6533C27.0999 25.6435 27.096 25.6342 27.0891 25.6273C27.0823 25.6204 27.0729 25.6165 27.0632 25.6165ZM26.0341 25.396H25.9606C25.9508 25.396 25.9415 25.3999 25.9346 25.4068C25.9277 25.4136 25.9238 25.423 25.9238 25.4327C25.9238 25.4425 25.9277 25.4518 25.9346 25.4587C25.9415 25.4656 25.9508 25.4695 25.9606 25.4695H26.0341C26.0438 25.4695 26.0532 25.4656 26.0601 25.4587C26.067 25.4518 26.0708 25.4425 26.0708 25.4327C26.0708 25.423 26.067 25.4136 26.0601 25.4068C26.0532 25.3999 26.0438 25.396 26.0341 25.396ZM27.0632 25.396H26.1811C26.1713 25.396 26.162 25.3999 26.1551 25.4068C26.1482 25.4136 26.1443 25.423 26.1443 25.4327C26.1443 25.4425 26.1482 25.4518 26.1551 25.4587C26.162 25.4656 26.1713 25.4695 26.1811 25.4695H27.0632C27.0729 25.4695 27.0823 25.4656 27.0891 25.4587C27.096 25.4518 27.0999 25.4425 27.0999 25.4327C27.0999 25.423 27.096 25.4136 27.0891 25.4068C27.0823 25.3999 27.0729 25.396 27.0632 25.396ZM26.0341 25.1755H25.9606C25.9508 25.1755 25.9415 25.1793 25.9346 25.1862C25.9277 25.1931 25.9238 25.2025 25.9238 25.2122C25.9238 25.222 25.9277 25.2313 25.9346 25.2382C25.9415 25.2451 25.9508 25.249 25.9606 25.249H26.0341C26.0438 25.249 26.0532 25.2451 26.0601 25.2382C26.067 25.2313 26.0708 25.222 26.0708 25.2122C26.0708 25.2025 26.067 25.1931 26.0601 25.1862C26.0532 25.1793 26.0438 25.1755 26.0341 25.1755ZM27.0632 25.1755H26.1811C26.1713 25.1755 26.162 25.1793 26.1551 25.1862C26.1482 25.1931 26.1443 25.2025 26.1443 25.2122C26.1443 25.222 26.1482 25.2313 26.1551 25.2382C26.162 25.2451 26.1713 25.249 26.1811 25.249H27.0632C27.0729 25.249 27.0823 25.2451 27.0891 25.2382C27.096 25.2313 27.0999 25.222 27.0999 25.2122C27.0999 25.2025 27.096 25.1931 27.0891 25.1862C27.0823 25.1793 27.0729 25.1755 27.0632 25.1755ZM26.0341 24.955H25.9606C25.9508 24.955 25.9415 24.9588 25.9346 24.9657C25.9277 24.9726 25.9238 24.982 25.9238 24.9917C25.9238 25.0015 25.9277 25.0108 25.9346 25.0177C25.9415 25.0246 25.9508 25.0285 25.9606 25.0285H26.0341C26.0438 25.0285 26.0532 25.0246 26.0601 25.0177C26.067 25.0108 26.0708 25.0015 26.0708 24.9917C26.0708 24.982 26.067 24.9726 26.0601 24.9657C26.0532 24.9588 26.0438 24.955 26.0341 24.955ZM27.0632 24.955H26.1811C26.1713 24.955 26.162 24.9588 26.1551 24.9657C26.1482 24.9726 26.1443 24.982 26.1443 24.9917C26.1443 25.0015 26.1482 25.0108 26.1551 25.0177C26.162 25.0246 26.1713 25.0285 26.1811 25.0285H27.0632C27.0729 25.0285 27.0823 25.0246 27.0891 25.0177C27.096 25.0108 27.0999 25.0015 27.0999 24.9917C27.0999 24.982 27.096 24.9726 27.0891 24.9657C27.0823 24.9588 27.0729 24.955 27.0632 24.955Z" fill="white"/>
<path d="M27.3201 24.8056C27.3199 24.8024 27.3192 24.7992 27.3182 24.7962C27.3178 24.795 27.3175 24.7939 27.317 24.7927C27.3152 24.7887 27.3127 24.7851 27.3096 24.782L26.7951 24.2674C26.792 24.2643 26.7883 24.2619 26.7843 24.2601C26.7832 24.2596 26.782 24.2593 26.7809 24.2589C26.7778 24.2578 26.7746 24.2572 26.7714 24.2569C26.7708 24.2571 26.7701 24.2567 26.7692 24.2567H25.7402C25.7304 24.2567 25.7211 24.2605 25.7142 24.2674C25.7073 24.2743 25.7034 24.2837 25.7034 24.2934V24.4037H25.5197C25.5099 24.4037 25.5006 24.4075 25.4937 24.4144C25.4868 24.4213 25.4829 24.4307 25.4829 24.4404V26.4251C25.4829 26.4348 25.4868 26.4441 25.4937 26.451C25.5006 26.4579 25.5099 26.4618 25.5197 26.4618H27.0633C27.073 26.4618 27.0824 26.4579 27.0893 26.451C27.0961 26.4441 27.1 26.4348 27.1 26.4251V26.2413H27.2838C27.2935 26.2413 27.3029 26.2374 27.3098 26.2305C27.3167 26.2236 27.3205 26.2143 27.3205 26.2045V24.8079C27.3205 24.8071 27.3201 24.8064 27.3201 24.8056ZM26.806 24.3821L27.1951 24.7712H26.806V24.3821ZM27.0265 26.3883H25.5564V24.4772H25.7034V26.2045C25.7034 26.2143 25.7073 26.2236 25.7142 26.2305C25.7211 26.2374 25.7304 26.2413 25.7402 26.2413H27.0265V26.3883ZM27.247 26.1678H25.7769V24.3302H26.7325V24.8079C26.7325 24.8177 26.7364 24.827 26.7433 24.8339C26.7502 24.8408 26.7595 24.8447 26.7692 24.8447H27.247V26.1678Z" fill="white"/>
<path d="M26.1811 24.5874H25.9606C25.9508 24.5874 25.9415 24.5913 25.9346 24.5982C25.9277 24.6051 25.9238 24.6144 25.9238 24.6242V24.8447C25.9238 24.8544 25.9277 24.8638 25.9346 24.8707C25.9415 24.8776 25.9508 24.8814 25.9606 24.8814H26.1811C26.1908 24.8814 26.2002 24.8776 26.2071 24.8707C26.214 24.8638 26.2178 24.8544 26.2178 24.8447V24.6242C26.2178 24.6144 26.214 24.6051 26.2071 24.5982C26.2002 24.5913 26.1908 24.5874 26.1811 24.5874ZM26.1443 24.8079H25.9973V24.6609H26.1443V24.8079Z" fill="white"/>
</g>
</g>
<defs>
<clipPath id="clip0_227_3563">
<rect width="49.95" height="49.95" fill="white" transform="translate(0.69165)"/>
</clipPath>
<clipPath id="clip1_227_3563">
<rect width="33.8123" height="33.8123" fill="white" transform="translate(10.5981 8.08557)"/>
</clipPath>
<clipPath id="clip2_227_3563">
<rect width="2.20515" height="2.20515" fill="white" transform="translate(25.2991 24.2567)"/>
</clipPath>
</defs>
</svg>
