<svg width="51" height="50" viewBox="0 0 51 50" fill="none" xmlns="http://www.w3.org/2000/svg">
<g clip-path="url(#clip0_227_3615)">
<path d="M25.6664 49.95C39.4597 49.95 50.6414 38.7683 50.6414 24.975C50.6414 11.1817 39.4597 0 25.6664 0C11.8731 0 0.691406 11.1817 0.691406 24.975C0.691406 38.7683 11.8731 49.95 25.6664 49.95Z" fill="#2A4887"/>
<path d="M38.6691 19.6284C39.5074 19.0853 40.1475 18.2857 40.494 17.3489C40.8405 16.4121 40.8747 15.3883 40.5915 14.4305C40.3083 13.4727 39.723 12.6321 38.9229 12.0342C38.1227 11.4364 37.1507 11.1134 36.1519 11.1134C35.1531 11.1134 34.181 11.4364 33.3809 12.0342C32.5807 12.6321 31.9954 13.4727 31.7122 14.4305C31.4291 15.3883 31.4633 16.4121 31.8098 17.3489C32.1562 18.2857 32.7964 19.0853 33.6346 19.6284C32.0029 20.1945 30.6099 21.2944 29.6809 22.7504C29.2951 22.5702 28.8976 22.4163 28.4911 22.2898C29.5926 21.666 30.4567 20.6951 30.9484 19.5285C31.4402 18.362 31.5319 17.0655 31.2094 15.8413C30.8868 14.6172 30.1681 13.5342 29.1653 12.7615C28.1626 11.9888 26.9323 11.5697 25.6663 11.5697C24.4004 11.5697 23.1701 11.9888 22.1673 12.7615C21.1646 13.5342 20.4459 14.6172 20.1233 15.8413C19.8007 17.0655 19.8925 18.362 20.3842 19.5285C20.876 20.6951 21.74 21.666 22.8416 22.2898C22.4344 22.415 22.0361 22.5677 21.6496 22.7467C20.7206 21.2908 19.3275 20.1908 17.6958 19.6247C18.5339 19.0816 19.1738 18.2821 19.5202 17.3455C19.8665 16.4088 19.9006 15.3853 19.6175 14.4277C19.3343 13.47 18.7491 12.6297 17.9491 12.032C17.1491 11.4343 16.1772 11.1113 15.1786 11.1113C14.18 11.1113 13.2081 11.4343 12.4082 12.032C11.6082 12.6297 11.0229 13.47 10.7397 14.4277C10.4566 15.3853 10.4907 16.4088 10.8371 17.3455C11.1834 18.2821 11.8233 19.0816 12.6614 19.6247C11.1568 20.1502 9.85264 21.1303 8.92945 22.4294C8.00626 23.7285 7.50964 25.2825 7.5083 26.8762C7.5083 27.0316 7.57001 27.1805 7.67986 27.2904C7.78971 27.4002 7.9387 27.4619 8.09404 27.4619H16.9402C16.3598 28.7196 16.06 30.0885 16.0616 31.4736C16.0616 31.6289 16.1233 31.7779 16.2332 31.8877C16.343 31.9976 16.492 32.0593 16.6474 32.0593H18.1908C17.7805 33.2503 17.6606 34.522 17.8412 35.7687C18.0218 37.0153 18.4976 38.2008 19.229 39.2264C19.9604 40.252 20.9263 41.088 22.0461 41.6648C23.166 42.2416 24.4074 42.5425 25.6671 42.5425C26.9267 42.5425 28.1682 42.2416 29.288 41.6648C30.4079 41.088 31.3737 40.252 32.1051 39.2264C32.8365 38.2008 33.3123 37.0153 33.4929 35.7687C33.6735 34.522 33.5537 33.2503 33.1433 32.0593H34.6868C34.8421 32.0593 34.9911 31.9976 35.101 31.8877C35.2108 31.7779 35.2725 31.6289 35.2725 31.4736C35.2741 30.0885 34.9743 28.7196 34.3939 27.4619H43.2386C43.394 27.4619 43.543 27.4002 43.6528 27.2904C43.7627 27.1805 43.8244 27.0316 43.8244 26.8762C43.8221 25.2828 43.3248 23.7295 42.4013 22.4311C41.4777 21.1327 40.1735 20.1533 38.6691 19.6284ZM32.6945 15.7478C32.6944 15.0639 32.897 14.3953 33.2769 13.8266C33.6567 13.2578 34.1966 12.8145 34.8284 12.5526C35.4602 12.2907 36.1554 12.222 36.8263 12.3553C37.4971 12.4885 38.1133 12.8176 38.5971 13.3011C39.0808 13.7845 39.4104 14.4006 39.544 15.0713C39.6777 15.742 39.6094 16.4373 39.3479 17.0693C39.0865 17.7012 38.6435 18.2414 38.075 18.6216C37.5065 19.0018 36.838 19.2049 36.1541 19.2052H36.1504C35.2339 19.2036 34.3554 18.8386 33.7077 18.1902C33.0599 17.5417 32.6958 16.6629 32.6953 15.7464L32.6945 15.7478ZM21.1056 17.311C21.1049 16.4088 21.3717 15.5267 21.8724 14.7762C22.3731 14.0257 23.0852 13.4406 23.9185 13.0948C24.7518 12.7491 25.6689 12.6582 26.5538 12.8338C27.4388 13.0094 28.2518 13.4434 28.89 14.0811C29.5282 14.7188 29.9629 15.5315 30.1392 16.4163C30.3155 17.3011 30.2253 18.2183 29.8803 19.0518C29.5352 19.8854 28.9506 20.5979 28.2005 21.0992C27.4504 21.6005 26.5685 21.8681 25.6663 21.8681C24.4577 21.8669 23.2989 21.3866 22.444 20.5323C21.589 19.678 21.1077 18.5196 21.1056 17.311ZM11.7227 15.7464C11.7226 15.0624 11.9252 14.3938 12.3051 13.8251C12.6849 13.2564 13.2248 12.813 13.8566 12.5511C14.4884 12.2892 15.1836 12.2206 15.8545 12.3538C16.5253 12.487 17.1415 12.8162 17.6253 13.2996C18.109 13.7831 18.4386 14.3991 18.5722 15.0698C18.7059 15.7405 18.6376 16.4358 18.3761 17.0678C18.1147 17.6997 17.6717 18.24 17.1032 18.6201C16.5346 19.0003 15.8662 19.2034 15.1823 19.2037C14.2652 19.2033 13.3858 18.839 12.7372 18.1908C12.0886 17.5425 11.7237 16.6634 11.7227 15.7464ZM8.70615 26.2897C8.85411 24.6745 9.59982 23.1727 10.7972 22.0785C11.9946 20.9843 13.5573 20.3766 15.1793 20.3745C16.2575 20.3742 17.3187 20.6421 18.2675 21.1541C19.2163 21.6662 20.0228 22.4062 20.6143 23.3076C19.395 24.0648 18.3594 25.0837 17.5823 26.2905L8.70615 26.2897ZM25.6663 41.3704C24.3341 41.3704 23.0317 40.9754 21.924 40.2352C20.8163 39.495 19.9529 38.443 19.443 37.2121C18.9332 35.9813 18.7998 34.6269 19.0597 33.3202C19.3196 32.0136 19.9612 30.8133 20.9032 29.8713C21.8453 28.9292 23.0455 28.2877 24.3522 28.0278C25.6589 27.7678 27.0133 27.9012 28.2441 28.4111C29.475 28.9209 30.527 29.7843 31.2672 30.892C32.0073 31.9998 32.4024 33.3021 32.4024 34.6344C32.4004 36.4203 31.6901 38.1325 30.4273 39.3953C29.1645 40.6582 27.4523 41.3685 25.6663 41.3704ZM32.6286 30.8878C31.9517 29.6307 30.947 28.5803 29.7212 27.8481C28.4953 27.116 27.0942 26.7294 25.6663 26.7294C24.2385 26.7294 22.8373 27.116 21.6115 27.8481C20.3857 28.5803 19.381 29.6307 18.704 30.8878H17.2529C17.4039 28.7586 18.3555 26.7655 19.9165 25.3094C21.4774 23.8534 23.5317 23.0424 25.6663 23.0396C27.8009 23.0424 29.8553 23.8534 31.4162 25.3094C32.9771 26.7655 33.9288 28.7586 34.0798 30.8878H32.6286ZM33.7496 26.2905C32.9728 25.0838 31.9374 24.0649 30.7184 23.3076C31.3098 22.4067 32.116 21.667 33.0643 21.1551C34.0127 20.6432 35.0735 20.3752 36.1511 20.3752C37.7731 20.3774 39.3359 20.9851 40.5333 22.0792C41.7307 23.1734 42.4764 24.6752 42.6243 26.2905H33.7496ZM30.1707 31.2224C29.8652 30.9177 29.4513 30.7465 29.0197 30.7465C28.5882 30.7465 28.1743 30.9177 27.8687 31.2224L24.5856 34.5055L23.4639 33.3831C23.1584 33.0786 22.7447 32.9076 22.3133 32.9076C21.882 32.9076 21.4682 33.0786 21.1627 33.3831L21.1202 33.4248C20.8153 33.7302 20.644 34.1442 20.644 34.5758C20.644 35.0074 20.8153 35.4213 21.1202 35.7268L23.4347 38.0419C23.7402 38.3467 24.1541 38.5178 24.5856 38.5178C25.0172 38.5178 25.4311 38.3467 25.7366 38.0419L30.2124 33.5654C30.5174 33.26 30.6886 32.846 30.6886 32.4144C30.6886 31.9828 30.5174 31.5689 30.2124 31.2634L30.1707 31.2224ZM29.3843 32.738L24.9085 37.2131C24.823 37.2986 24.707 37.3467 24.586 37.3467C24.465 37.3467 24.349 37.2986 24.2635 37.2131L21.9483 34.8987C21.8628 34.8131 21.8148 34.6971 21.8148 34.5762C21.8148 34.4552 21.8628 34.3392 21.9483 34.2536L21.9901 34.2112C22.0758 34.126 22.1917 34.0782 22.3126 34.0782C22.4334 34.0782 22.5494 34.126 22.6351 34.2112L24.1727 35.7487C24.2825 35.8585 24.4315 35.9202 24.5867 35.9202C24.742 35.9202 24.891 35.8585 25.0008 35.7487L28.6983 32.0512C28.7842 31.9664 28.9001 31.9189 29.0208 31.9189C29.1415 31.9189 29.2574 31.9664 29.3433 32.0512L29.3851 32.093C29.4275 32.1355 29.4612 32.186 29.4841 32.2416C29.5071 32.2971 29.5189 32.3566 29.5188 32.4168C29.5187 32.4769 29.5068 32.5364 29.4837 32.5919C29.4607 32.6474 29.4269 32.6978 29.3843 32.7402V32.738Z" fill="white"/>
</g>
<defs>
<clipPath id="clip0_227_3615">
<rect width="49.95" height="49.95" fill="white" transform="translate(0.691406)"/>
</clipPath>
</defs>
</svg>
