<svg width="50" height="51" viewBox="0 0 50 51" fill="none" xmlns="http://www.w3.org/2000/svg">
<g clip-path="url(#clip0_227_3711)">
<path d="M25 50.6166C38.7933 50.6166 49.975 39.4349 49.975 25.6416C49.975 11.8483 38.7933 0.666626 25 0.666626C11.2067 0.666626 0.0250244 11.8483 0.0250244 25.6416C0.0250244 39.4349 11.2067 50.6166 25 50.6166Z" fill="#2A4887"/>
<path fill-rule="evenodd" clip-rule="evenodd" d="M17.2821 13.1625C13.6311 13.1625 10.6666 16.1269 10.6666 19.7779C10.6666 23.4289 13.6311 26.3934 17.2821 26.3934C20.9331 26.3934 23.8975 23.4289 23.8975 19.7779C23.8975 16.1269 20.9331 13.1625 17.2821 13.1625ZM17.2821 14.6326C20.1216 14.6326 22.4274 16.9384 22.4274 19.7779C22.4274 22.6174 20.1216 24.9233 17.2821 24.9233C14.4426 24.9233 12.1367 22.6174 12.1367 19.7779C12.1367 16.9384 14.4426 14.6326 17.2821 14.6326ZM31.9831 13.1625C28.3321 13.1625 25.3676 16.1269 25.3676 19.7779C25.3676 23.4289 28.3321 26.3934 31.9831 26.3934C35.6341 26.3934 38.5985 23.4289 38.5985 19.7779C38.5985 16.1269 35.6341 13.1625 31.9831 13.1625ZM31.9831 14.6326C34.8226 14.6326 37.1284 16.9384 37.1284 19.7779C37.1284 22.6174 34.8226 24.9233 31.9831 24.9233C29.1436 24.9233 26.8377 22.6174 26.8377 19.7779C26.8377 16.9384 29.1436 14.6326 31.9831 14.6326ZM24.6326 29.5482C25.8442 28.4613 27.4152 27.8612 29.0429 27.8635H34.9233C36.6778 27.8635 38.3605 28.5605 39.6011 29.8011C40.8418 31.0417 41.5387 32.7244 41.5387 34.4789V35.949C41.5387 36.5341 41.3065 37.095 40.8926 37.5081C40.688 37.713 40.445 37.8755 40.1775 37.9864C39.9099 38.0973 39.6232 38.1543 39.3336 38.1542H9.93159C9.64201 38.1543 9.35524 38.0973 9.08772 37.9864C8.8202 37.8755 8.57717 37.713 8.37255 37.5081C8.16764 37.3035 8.0051 37.0604 7.89423 36.7929C7.78336 36.5254 7.72634 36.2386 7.72644 35.949V34.4789C7.72644 32.7244 8.42342 31.0417 9.66406 29.8011C10.9047 28.5605 12.5874 27.8635 14.3419 27.8635H20.2223C21.9166 27.8635 23.4617 28.5 24.6326 29.5482ZM25.3676 34.4789V35.949C25.3679 36.0456 25.3491 36.1414 25.3123 36.2307C25.2754 36.32 25.2213 36.4011 25.153 36.4694C25.0847 36.5378 25.0035 36.5919 24.9142 36.6287C24.8249 36.6656 24.7292 36.6844 24.6326 36.6841H9.93159C9.83498 36.6844 9.73927 36.6656 9.64996 36.6287C9.56064 36.5919 9.4795 36.5378 9.41118 36.4694C9.34287 36.4011 9.28874 36.32 9.2519 36.2307C9.21506 36.1414 9.19625 36.0456 9.19654 35.949V34.4789C9.19654 33.1143 9.73864 31.8056 10.7036 30.8406C11.6685 29.8757 12.9773 29.3336 14.3419 29.3336H20.2223C21.5869 29.3336 22.8957 29.8757 23.8606 30.8406C24.8255 31.8056 25.3676 33.1143 25.3676 34.4789ZM26.7113 36.6841H39.3336C39.4302 36.6844 39.5259 36.6656 39.6152 36.6287C39.7045 36.5919 39.7857 36.5378 39.854 36.4694C39.9223 36.4011 39.9765 36.32 40.0133 36.2307C40.0501 36.1414 40.0689 36.0456 40.0686 35.949V34.4789C40.0686 33.1143 39.5266 31.8056 38.5616 30.8406C37.5967 29.8757 36.2879 29.3336 34.9233 29.3336H29.0429C27.7771 29.3317 26.5554 29.7983 25.6132 30.6434C26.4117 31.7628 26.8399 33.104 26.8377 34.4789V35.949C26.8377 36.2019 26.7944 36.4503 26.7113 36.6841Z" fill="white"/>
</g>
<defs>
<clipPath id="clip0_227_3711">
<rect width="49.95" height="49.95" fill="white" transform="translate(0.0250244 0.666626)"/>
</clipPath>
</defs>
</svg>
