<svg width="51" height="50" viewBox="0 0 51 50" fill="none" xmlns="http://www.w3.org/2000/svg">
<g clip-path="url(#clip0_227_3601)">
<path d="M25.3332 49.95C39.1265 49.95 50.3082 38.7683 50.3082 24.975C50.3082 11.1817 39.1265 0 25.3332 0C11.5398 0 0.358154 11.1817 0.358154 24.975C0.358154 38.7683 11.5398 49.95 25.3332 49.95Z" fill="#2A4887"/>
</g>
<g clip-path="url(#clip1_227_3601)">
<path d="M35.3597 24.9545H32.4817C32.09 24.9545 31.7107 25.008 31.3498 25.1065C30.6378 23.7069 29.1843 22.7452 27.5093 22.7452H22.422C20.747 22.7452 19.2935 23.7069 18.5815 25.1065C18.2127 25.0057 17.832 24.9546 17.4496 24.9545H14.5716C12.1967 24.9545 10.2646 26.8866 10.2646 29.2615V33.8623C10.2646 35.2872 11.4239 36.4465 12.8488 36.4465H37.0825C38.5074 36.4465 39.6667 35.2872 39.6667 33.8623V29.2615C39.6667 26.8866 37.7346 24.9545 35.3597 24.9545ZM18.115 27.0523V34.7237H12.8488C12.3738 34.7237 11.9874 34.3373 11.9874 33.8624V29.2615C11.9874 27.8366 13.1467 26.6774 14.5716 26.6774H17.4496C17.6835 26.6774 17.9099 26.7091 18.1255 26.7676C18.1189 26.8624 18.1154 26.9573 18.115 27.0523ZM30.0935 34.7237H19.8378V27.0522C19.8378 25.6273 20.9971 24.4681 22.422 24.4681H27.5093C28.9342 24.4681 30.0935 25.6273 30.0935 27.0522V34.7237ZM37.9439 33.8624C37.9439 34.3373 37.5575 34.7237 37.0825 34.7237H31.8163V27.0522C31.8159 26.9573 31.8124 26.8623 31.8058 26.7676C32.0261 26.7077 32.2534 26.6773 32.4817 26.6773H35.3597C36.7846 26.6773 37.9439 27.8366 37.9439 29.2615V33.8624Z" fill="white"/>
<path d="M16.0108 16.8203C13.9005 16.8203 12.1836 18.5371 12.1836 20.6475C12.1835 22.7578 13.9005 24.4747 16.0108 24.4747C18.1211 24.4747 19.838 22.7578 19.838 20.6475C19.838 18.5371 18.1211 16.8203 16.0108 16.8203ZM16.0107 22.7519C14.8503 22.7519 13.9063 21.8079 13.9063 20.6475C13.9063 19.487 14.8503 18.543 16.0107 18.543C17.1711 18.543 18.1152 19.487 18.1152 20.6475C18.1152 21.8079 17.1711 22.7519 16.0107 22.7519ZM24.9658 12.0668C22.1464 12.0668 19.8527 14.3605 19.8527 17.1799C19.8527 19.9993 22.1464 22.293 24.9658 22.293C27.7851 22.293 30.0788 19.9993 30.0788 17.1799C30.0788 14.3606 27.7851 12.0668 24.9658 12.0668ZM24.9658 20.5702C23.0963 20.5702 21.5755 19.0494 21.5755 17.1799C21.5755 15.3105 23.0963 13.7896 24.9658 13.7896C26.8352 13.7896 28.3561 15.3105 28.3561 17.1799C28.3561 19.0494 26.8352 20.5702 24.9658 20.5702ZM33.9207 16.8203C31.8105 16.8203 30.0935 18.5371 30.0935 20.6475C30.0936 22.7578 31.8105 24.4747 33.9207 24.4747C36.0311 24.4747 37.7479 22.7578 37.7479 20.6475C37.7479 18.5371 36.0311 16.8203 33.9207 16.8203ZM33.9207 22.7519C32.7604 22.7519 31.8163 21.8079 31.8163 20.6475C31.8164 19.487 32.7604 18.543 33.9207 18.543C35.0812 18.543 36.0252 19.487 36.0252 20.6475C36.0252 21.8079 35.0812 22.7519 33.9207 22.7519Z" fill="white"/>
</g>
<defs>
<clipPath id="clip0_227_3601">
<rect width="49.95" height="49.95" fill="white" transform="translate(0.358154)"/>
</clipPath>
<clipPath id="clip1_227_3601">
<rect width="29.402" height="29.402" fill="white" transform="translate(10.2646 9.55566)"/>
</clipPath>
</defs>
</svg>
