<svg width="51" height="51" viewBox="0 0 51 51" fill="none" xmlns="http://www.w3.org/2000/svg">
<g clip-path="url(#clip0_227_3738)">
<path d="M25.6667 50.6166C39.46 50.6166 50.6417 39.4349 50.6417 25.6416C50.6417 11.8483 39.46 0.666626 25.6667 0.666626C11.8733 0.666626 0.69165 11.8483 0.69165 25.6416C0.69165 39.4349 11.8733 50.6166 25.6667 50.6166Z" fill="#2A4887"/>
</g>
<path d="M25.6666 39.4469C25.1599 39.4476 24.658 39.3483 24.1897 39.1546C23.7215 38.9609 23.2961 38.6767 22.9379 38.3182L21.5011 36.8801C21.3266 36.7047 21.1192 36.5656 20.8906 36.4709C20.6621 36.3761 20.417 36.3277 20.1696 36.3283H18.4866C17.4635 36.3272 16.4826 35.9204 15.7592 35.1969C15.0358 34.4735 14.6289 33.4926 14.6278 32.4696V30.7878C14.6286 30.5405 14.5804 30.2955 14.4859 30.067C14.3914 29.8384 14.2525 29.6309 14.0774 29.4564L12.6392 28.0195C11.9167 27.2952 11.511 26.3139 11.511 25.2908C11.511 24.2677 11.9167 23.2864 12.6392 22.562L14.0774 21.1252C14.2528 20.9508 14.3919 20.7433 14.4866 20.5148C14.5813 20.2862 14.6298 20.0412 14.6292 19.7938V18.1107C14.6302 17.0876 15.0371 16.1068 15.7605 15.3833C16.4839 14.6599 17.4648 14.253 18.4879 14.252H20.1696C20.4169 14.2528 20.6619 14.2045 20.8905 14.11C21.119 14.0155 21.3265 13.8767 21.5011 13.7015L22.9379 12.2634C23.6622 11.5409 24.6436 11.1351 25.6666 11.1351C26.6897 11.1351 27.671 11.5409 28.3954 12.2634L29.8322 13.7015C30.0067 13.8769 30.2141 14.016 30.4427 14.1107C30.6712 14.2054 30.9163 14.2539 31.1637 14.2533H32.8467C33.8698 14.2544 34.8507 14.6612 35.5741 15.3847C36.2975 16.1081 36.7044 17.0889 36.7055 18.112V19.7938C36.7047 20.0411 36.7529 20.2861 36.8474 20.5146C36.9419 20.7431 37.0808 20.9507 37.2559 21.1252L38.6928 22.562C39.4153 23.2864 39.821 24.2677 39.821 25.2908C39.821 26.3139 39.4153 27.2952 38.6928 28.0195L37.2559 29.4564C37.0805 29.6308 36.9414 29.8383 36.8467 30.0668C36.752 30.2954 36.7035 30.5404 36.7041 30.7878V32.4709C36.7031 33.494 36.2962 34.4748 35.5728 35.1982C34.8494 35.9217 33.8685 36.3285 32.8454 36.3296H31.1637C30.9163 36.329 30.6712 36.3775 30.4427 36.4722C30.2141 36.5669 30.0067 36.706 29.8322 36.8814L28.3954 38.3182C28.0372 38.6767 27.6118 38.9609 27.1435 39.1546C26.6753 39.3483 26.1734 39.4476 25.6666 39.4469ZM18.4866 16.2274C17.9872 16.2278 17.5084 16.4263 17.1553 16.7794C16.8022 17.1325 16.6036 17.6113 16.6033 18.1107V19.7938C16.6051 20.3013 16.5061 20.8041 16.3118 21.273C16.1176 21.7419 15.8322 22.1676 15.472 22.5252L14.0365 23.9607C13.6836 24.3144 13.4855 24.7937 13.4855 25.2934C13.4855 25.7931 13.6836 26.2724 14.0365 26.6262L15.472 28.0617C15.8319 28.419 16.1171 28.8442 16.3113 29.3126C16.5055 29.781 16.6048 30.2834 16.6033 30.7904V32.4735C16.6036 32.9729 16.8022 33.4517 17.1553 33.8048C17.5084 34.1579 17.9872 34.3564 18.4866 34.3568H20.1696C20.6767 34.3556 21.1789 34.455 21.6473 34.6491C22.1157 34.8433 22.5409 35.1285 22.8984 35.4881L24.3339 36.9235C24.6877 37.2764 25.167 37.4746 25.6666 37.4746C26.1663 37.4746 26.6456 37.2764 26.9994 36.9235L28.4349 35.4881C28.7924 35.1285 29.2176 34.8433 29.686 34.6491C30.1544 34.455 30.6566 34.3556 31.1637 34.3568H32.8467C33.3461 34.3564 33.8249 34.1579 34.178 33.8048C34.5311 33.4517 34.7297 32.9729 34.73 32.4735V30.7878C34.7285 30.2807 34.8278 29.7784 35.022 29.31C35.2162 28.8415 35.5014 28.4163 35.8613 28.0591L37.2968 26.6236C37.6497 26.2698 37.8478 25.7905 37.8478 25.2908C37.8478 24.7911 37.6497 24.3118 37.2968 23.958L35.8613 22.5252C35.5017 22.1677 35.2165 21.7425 35.0224 21.2741C34.8282 20.8057 34.7288 20.3035 34.73 19.7964V18.1107C34.7297 17.6113 34.5311 17.1325 34.178 16.7794C33.8249 16.4263 33.3461 16.2278 32.8467 16.2274H31.1637C30.6561 16.2293 30.1533 16.1302 29.6844 15.936C29.2155 15.7418 28.7899 15.4563 28.4323 15.0962L26.9968 13.6607C26.643 13.3078 26.1637 13.1096 25.664 13.1096C25.1643 13.1096 24.685 13.3078 24.3312 13.6607L22.901 15.0962C22.5437 15.456 22.1185 15.7413 21.6501 15.9355C21.1817 16.1297 20.6794 16.2289 20.1723 16.2274H18.4866Z" fill="white"/>
<path d="M24.3497 28.9124C24.22 28.9127 24.0915 28.8873 23.9716 28.8375C23.8518 28.7878 23.7431 28.7148 23.6517 28.6227L21.0178 25.9887C20.8433 25.8015 20.7483 25.5538 20.7528 25.298C20.7574 25.0421 20.861 24.7979 21.042 24.617C21.223 24.436 21.4671 24.3323 21.723 24.3278C21.9789 24.3233 22.2265 24.4183 22.4138 24.5928L24.3497 26.5274L28.9196 21.9588C29.1068 21.7843 29.3545 21.6894 29.6103 21.6939C29.8662 21.6984 30.1104 21.8021 30.2913 21.983C30.4723 22.164 30.576 22.4081 30.5805 22.664C30.585 22.9199 30.49 23.1676 30.3156 23.3548L25.0477 28.6227C24.9563 28.7148 24.8476 28.7878 24.7278 28.8375C24.6079 28.8873 24.4794 28.9127 24.3497 28.9124Z" fill="white"/>
<defs>
<clipPath id="clip0_227_3738">
<rect width="49.95" height="49.95" fill="white" transform="translate(0.69165 0.666626)"/>
</clipPath>
</defs>
</svg>
